<?xml version="1.0" standalone="no"?>
<!DOCTYPE svg PUBLIC "-//W3C//DTD SVG 20010904//EN"
 "http://www.w3.org/TR/2001/REC-SVG-20010904/DTD/svg10.dtd">
<svg version="1.0" xmlns="http://www.w3.org/2000/svg"
 width="500.000000pt" height="500.000000pt" viewBox="0 0 500.000000 500.000000"
 preserveAspectRatio="xMidYMid meet">

<g transform="translate(0.000000,500.000000) scale(0.100000,-0.100000)"
fill="#000000" stroke="none">
<path d="M3238 3287 c-42 -12 -48 -22 -18 -30 19 -5 20 -14 20 -185 0 -187 -3
-212 -25 -212 -8 0 -17 -4 -20 -10 -4 -6 21 -10 67 -9 69 0 72 1 51 16 -21 14
-23 23 -23 114 0 109 6 119 69 119 48 0 61 -29 61 -133 0 -80 -2 -89 -20 -94
-41 -11 -18 -23 45 -23 62 0 86 12 46 23 -17 4 -19 16 -23 112 -3 103 -4 108
-31 131 -34 29 -61 30 -110 4 l-37 -20 0 105 c0 58 -3 104 -7 104 -5 -1 -25
-6 -45 -12z"/>
<path d="M2443 3258 c-5 -7 -40 -92 -78 -188 -68 -175 -86 -210 -112 -210 -7
0 -13 -4 -13 -10 0 -6 28 -10 65 -10 37 0 65 4 65 10 0 6 -9 10 -20 10 -25 0
-26 20 -4 83 l16 47 69 0 c70 0 70 0 84 -33 28 -68 29 -88 6 -94 -46 -12 -17
-23 60 -23 51 0 78 4 74 10 -3 6 -13 10 -20 10 -23 0 -41 36 -106 220 -34 96
-65 179 -69 183 -4 4 -11 2 -17 -5z m18 -145 c12 -38 24 -74 27 -80 3 -10 -11
-13 -52 -13 -38 0 -56 4 -56 12 0 14 50 148 55 148 2 0 13 -30 26 -67z"/>
<path d="M520 3250 c0 -5 8 -10 18 -10 37 0 42 -20 42 -159 0 -154 11 -189 69
-228 43 -29 121 -31 171 -4 61 32 73 67 82 224 4 81 12 144 19 153 16 19 74
18 94 -2 12 -13 15 -28 11 -63 -3 -25 -8 -91 -12 -146 -8 -115 -16 -145 -44
-152 -44 -12 -16 -23 55 -23 43 0 75 4 75 10 0 6 -8 10 -18 10 -34 0 -42 21
-41 110 1 47 4 114 8 149 l6 64 71 -169 c39 -93 75 -168 80 -168 4 1 41 75 81
164 40 90 75 165 78 168 3 3 4 -66 3 -154 -3 -156 -3 -159 -25 -162 -13 -2
-23 -8 -23 -13 0 -5 38 -9 85 -9 50 0 85 4 85 10 0 6 -8 10 -19 10 -10 0 -23
6 -28 13 -6 6 -13 85 -17 174 -5 139 -4 164 10 177 8 9 22 16 30 16 8 0 14 5
14 10 0 6 -24 10 -53 10 l-54 0 -70 -151 c-39 -82 -75 -151 -79 -152 -5 -1
-40 67 -78 151 l-70 152 -133 0 c-124 0 -166 -9 -108 -24 38 -10 47 -47 43
-166 -6 -150 -37 -202 -121 -202 -93 0 -120 46 -125 213 -4 125 4 159 38 159
11 0 20 5 20 10 0 6 -35 10 -85 10 -50 0 -85 -4 -85 -10z"/>
<path d="M4303 3188 c-13 -13 -23 -34 -23 -45 0 -13 -9 -24 -22 -28 l-23 -8
23 -4 c21 -4 22 -9 22 -108 0 -58 5 -115 12 -130 15 -34 48 -41 89 -18 l34 18
-32 3 c-46 5 -54 27 -51 135 l3 92 38 3 c49 4 48 22 -2 22 l-40 0 -3 46 -3 46
-22 -24z"/>
<path d="M1583 3109 c-50 -24 -67 -43 -59 -64 9 -25 36 -17 48 15 14 41 54 52
80 20 36 -45 17 -74 -65 -100 -50 -16 -67 -35 -67 -75 0 -24 7 -39 26 -54 33
-26 50 -26 92 -1 27 17 33 18 38 5 9 -23 41 -27 69 -9 27 17 35 40 11 31 -26
-10 -34 16 -38 116 -3 90 -5 101 -27 118 -30 24 -56 24 -108 -2z m87 -169 c0
-40 -4 -51 -21 -60 -43 -24 -90 11 -73 54 6 15 67 54 87 56 4 0 7 -22 7 -50z"/>
<path d="M1850 3117 c-14 -7 -31 -25 -38 -40 -21 -44 -4 -77 61 -116 48 -28
57 -38 57 -62 0 -61 -73 -60 -105 1 -22 42 -39 39 -32 -7 8 -48 17 -55 74 -60
42 -5 53 -1 81 22 26 21 32 34 32 65 0 42 -9 52 -79 90 -48 26 -63 58 -41 86
19 22 46 17 73 -16 31 -36 37 -37 37 -6 0 50 -62 72 -120 43z"/>
<path d="M2059 3101 c-51 -52 -32 -100 62 -156 45 -27 52 -69 15 -86 -20 -10
-30 -9 -51 5 -14 9 -31 28 -37 42 -15 32 -28 31 -28 -4 0 -50 22 -67 83 -67
68 0 107 29 107 80 0 41 -16 61 -75 93 -52 28 -68 59 -45 88 19 22 46 17 73
-16 33 -38 41 -38 33 2 -8 39 -20 48 -69 48 -29 0 -46 -7 -68 -29z"/>
<path d="M2735 3118 c-61 -19 -61 -19 -37 -29 21 -8 22 -14 22 -115 0 -97 -2
-106 -20 -111 -42 -11 -17 -23 47 -23 l67 0 -22 20 c-19 18 -22 31 -22 109 0
83 2 90 25 105 32 21 68 20 88 -2 13 -15 17 -39 17 -111 0 -84 -2 -93 -20 -98
-41 -11 -18 -23 45 -23 63 0 86 12 45 23 -18 5 -20 14 -20 100 0 88 2 97 22
111 30 21 71 20 91 -2 13 -15 17 -39 17 -111 0 -84 -2 -93 -20 -98 -42 -11
-17 -23 48 -22 64 0 66 1 45 16 -21 14 -23 23 -23 109 0 106 -11 138 -51 154
-31 13 -61 7 -102 -22 l-28 -20 -24 26 c-29 31 -59 33 -103 6 -40 -25 -50 -25
-54 -2 -3 16 -8 17 -33 10z"/>
<path d="M3623 3115 c-84 -36 -113 -170 -52 -239 49 -56 127 -58 175 -5 24 26
13 32 -24 13 -59 -29 -123 13 -134 86 -3 24 -1 25 87 35 83 9 90 12 93 33 4
30 -57 92 -89 92 -13 -1 -38 -7 -56 -15z m65 -22 c31 -27 32 -55 2 -64 -37
-10 -88 -10 -95 0 -9 15 15 58 39 69 29 15 31 14 54 -5z"/>
<path d="M3850 3117 c-46 -13 -45 -12 -21 -36 18 -18 21 -33 21 -108 0 -94 -4
-104 -35 -118 -17 -8 -14 -10 17 -13 21 -2 57 -2 80 0 43 4 43 4 16 16 -27 11
-28 14 -28 95 0 103 14 129 68 125 29 -2 37 1 40 16 4 19 -13 36 -36 36 -8 0
-27 -14 -43 -31 l-29 -31 0 25 c0 33 -7 36 -50 24z"/>
<path d="M4090 3117 c-13 -7 -31 -24 -39 -38 -22 -40 -7 -75 47 -109 66 -41
72 -47 72 -76 0 -36 -41 -53 -75 -30 -14 9 -31 28 -37 42 -23 49 -39 14 -18
-40 17 -47 109 -47 156 -1 48 48 23 103 -68 149 -57 29 -62 79 -10 93 20 5 31
0 54 -25 34 -39 42 -40 34 -4 -12 49 -62 66 -116 39z"/>
<path d="M1493 2573 c548 -2 1446 -2 1995 0 548 1 99 2 -998 2 -1097 0 -1546
-1 -997 -2z"/>
<path d="M614 2336 c-12 -31 1 -51 34 -54 31 -3 32 -2 32 32 0 33 -2 36 -30
36 -17 0 -33 -6 -36 -14z"/>
<path d="M968 2331 c-68 -27 -120 -72 -154 -133 -27 -49 -29 -60 -29 -158 0
-97 2 -109 29 -158 52 -93 140 -143 263 -150 45 -2 98 -1 117 2 32 6 36 10 36
38 0 26 -3 29 -22 25 -147 -37 -274 6 -331 111 -72 132 -27 299 96 365 34 17
58 21 127 21 47 -1 94 -3 105 -5 15 -3 21 2 23 22 4 33 -14 39 -128 38 -58 0
-100 -6 -132 -18z"/>
<path d="M1404 2171 c-49 -22 -97 -78 -113 -130 -25 -85 -4 -198 47 -254 51
-57 180 -80 247 -45 125 66 161 247 73 369 -53 74 -165 100 -254 60z m167 -54
c48 -32 71 -85 71 -162 -1 -84 -29 -137 -89 -166 -144 -70 -268 107 -188 268
41 82 133 109 206 60z"/>
<path d="M1928 2170 c-20 -11 -44 -30 -52 -42 l-16 -22 0 21 c0 37 -11 53 -36
53 l-24 0 0 -226 0 -225 28 3 27 3 5 155 c3 88 10 164 17 175 39 69 132 97
185 56 39 -31 48 -77 48 -244 l0 -148 28 3 27 3 0 175 c0 167 -1 177 -24 214
-41 65 -137 86 -213 46z"/>
<path d="M2325 2174 c-47 -24 -65 -53 -65 -107 0 -60 23 -86 114 -127 36 -16
72 -40 81 -54 41 -62 -34 -127 -123 -108 -26 5 -55 13 -64 17 -15 6 -18 2 -18
-23 0 -28 4 -32 38 -39 58 -12 135 -7 170 11 45 23 65 59 64 113 0 57 -26 86
-110 125 -104 48 -126 85 -76 135 24 24 30 25 95 20 67 -6 69 -5 69 17 0 16
-7 26 -22 30 -42 11 -123 6 -153 -10z"/>
<path d="M620 1954 l0 -225 28 3 27 3 3 223 2 222 -30 0 -30 0 0 -226z"/>
</g>
</svg>
