<?xml version="1.0" standalone="no"?>
<!DOCTYPE svg PUBLIC "-//W3C//DTD SVG 20010904//EN"
 "http://www.w3.org/TR/2001/REC-SVG-20010904/DTD/svg10.dtd">
<svg version="1.0" xmlns="http://www.w3.org/2000/svg"
 width="381.000000pt" height="318.000000pt" viewBox="0 0 381.000000 318.000000"
 preserveAspectRatio="xMidYMid meet">

<g transform="translate(0.000000,318.000000) scale(0.100000,-0.100000)"
fill="#000000" stroke="none">
<path d="M290 2140 l0 -380 1640 0 1640 0 0 380 0 380 -1640 0 -1640 0 0 -380z
m1680 269 c95 -43 134 -107 135 -219 0 -64 -4 -82 -28 -123 -96 -164 -345
-151 -432 23 -29 56 -24 155 10 218 28 52 80 96 131 112 53 15 137 11 184 -11z
m-380 -39 l0 -50 -75 0 -75 0 -2 -177 -3 -178 -50 0 -50 0 -3 178 -2 177 -75
0 -75 0 0 50 0 50 205 0 205 0 0 -50z m946 24 c51 -38 69 -71 69 -129 0 -39
-6 -61 -21 -82 -38 -51 -77 -66 -185 -71 l-98 -5 -3 -71 -3 -71 -47 -3 -48 -3
0 231 0 232 154 -4 c137 -3 158 -5 182 -24z m197 9 c-7 -2 -14 -21 -15 -41
l-1 -37 -4 35 c-3 19 -10 38 -16 42 -7 4 1 7 18 7 17 0 24 -3 18 -6z m135 0
c-22 -6 -21 -60 1 -66 10 -3 8 -5 -6 -6 -20 -1 -23 4 -23 32 0 38 6 48 29 46
14 -1 13 -2 -1 -6z m-101 -55 c-2 -13 -4 -5 -4 17 -1 22 1 32 4 23 2 -10 2
-28 0 -40z m52 15 c0 -29 -2 -33 -8 -18 -7 18 -4 55 5 55 2 0 4 -17 3 -37z
m-103 -156 c-24 -18 -17 -51 12 -55 28 -4 40 23 22 52 -12 19 -12 20 4 7 35
-29 -3 -89 -41 -65 -10 6 -19 19 -21 28 -4 19 15 46 31 46 6 0 3 -6 -7 -13z
m122 -9 c2 -10 -1 -18 -7 -18 -6 0 -8 7 -4 17 5 13 2 15 -15 11 -12 -4 -22 -2
-22 4 0 17 45 4 48 -14z m68 11 c3 -6 1 -16 -5 -22 -9 -9 -11 -8 -6 5 5 12 0
18 -17 21 -22 4 -22 4 -1 6 12 0 25 -4 29 -10z m33 -8 c-17 -26 -4 -53 23 -49
29 4 36 37 12 56 -11 8 -13 12 -5 10 8 -2 19 -12 25 -21 22 -34 -28 -73 -59
-47 -18 15 -19 42 -3 58 17 17 20 15 7 -7z m125 10 c4 -5 2 -19 -2 -32 -5 -14
-11 -18 -16 -11 -3 6 -2 13 4 17 17 10 11 23 -12 28 -23 4 -23 4 -1 6 12 0 24
-3 27 -8z m57 -28 c-5 -37 -6 -37 -9 -8 -2 16 -9 33 -15 37 -8 5 -4 8 8 8 18
0 20 -5 16 -37z m142 23 c4 -10 1 -13 -9 -9 -15 6 -19 23 -5 23 5 0 11 -7 14
-14z m130 6 c-6 -4 -13 -21 -15 -37 -3 -29 -4 -29 -9 8 -4 32 -2 37 16 37 12
0 16 -3 8 -8z m69 -14 c-7 -7 -12 -21 -13 -32 0 -20 -1 -20 -8 -2 -7 18 17 59
28 49 3 -2 -1 -9 -7 -15z m-2950 -48 c20 0 20 -1 4 -19 -12 -13 -15 -27 -11
-40 6 -19 4 -20 -18 -10 -18 8 -30 8 -46 0 -20 -11 -21 -10 -15 14 5 19 1 30
-12 40 -18 14 -18 14 4 15 14 0 27 9 34 26 l12 25 13 -25 c8 -16 22 -26 35
-26z m2291 15 c-7 -21 -13 -19 -13 6 0 11 4 18 10 14 5 -3 7 -12 3 -20z m497
-13 c0 -8 -1 -13 -3 -11 -1 2 -9 12 -16 22 -12 15 -12 17 3 11 9 -3 16 -13 16
-22z m-85 -1 c-8 -13 -32 -14 -39 -2 -4 5 3 7 14 4 12 -3 20 0 20 8 0 7 3 10
6 6 3 -3 3 -10 -1 -16z m-2125 -16 l0 -25 -242 2 -243 3 -3 23 -3 22 245 0
246 0 0 -25z m1655 -105 c4 -6 1 -17 -5 -25 -14 -16 -40 -20 -40 -6 0 5 7 8
16 7 26 -2 28 22 2 27 -22 4 -22 4 -1 6 12 0 25 -4 28 -9z m58 3 c-7 -2 -19
-2 -25 0 -7 3 -2 5 12 5 14 0 19 -2 13 -5z m95 -5 c7 -7 12 -19 11 -27 0 -10
-4 -7 -10 7 -13 33 -54 27 -54 -8 0 -21 5 -25 27 -25 14 1 24 -3 22 -7 -8 -13
-41 -9 -54 7 -19 23 -4 65 23 65 13 0 28 -5 35 -12z m72 -23 c0 -38 -22 -57
-42 -37 -8 8 -5 9 11 5 18 -5 21 -1 21 25 0 17 -6 33 -12 35 -8 3 -6 6 5 6 13
1 17 -7 17 -34z m48 28 c-10 -2 -18 -9 -18 -14 0 -5 8 -10 18 -10 16 -1 16 -2
0 -6 -22 -6 -24 -30 -3 -36 11 -4 10 -4 -2 -3 -13 1 -19 11 -21 39 -3 33 -1
37 20 36 17 -1 18 -3 6 -6z m96 -1 c2 -4 -8 -8 -22 -7 -37 0 -44 -41 -10 -54
14 -6 17 -10 8 -10 -20 -1 -40 18 -40 39 0 31 49 55 64 32z m59 1 c-7 -2 -19
-2 -25 0 -7 3 -2 5 12 5 14 0 19 -2 13 -5z m-366 -45 c2 -17 0 -19 -7 -8 -5 8
-6 18 -4 22 8 12 10 10 11 -14z"/>
<path d="M1803 2315 c-65 -28 -93 -126 -57 -196 21 -42 92 -73 145 -64 103 18
152 138 88 219 -42 54 -111 70 -176 41z"/>
<path d="M2300 2270 l0 -50 89 0 c79 0 92 2 104 21 19 27 10 58 -20 70 -13 5
-58 9 -99 9 l-74 0 0 -50z"/>
<path d="M290 1150 l0 -530 1015 0 1015 0 0 530 0 530 -1015 0 -1015 0 0 -530z
m855 231 c3 -5 1 -12 -5 -16 -5 -3 -10 1 -10 9 0 18 6 21 15 7z m215 -35 c0
-24 3 -51 6 -60 9 -24 -52 -22 -65 2 -14 26 -2 62 20 62 12 0 19 7 19 20 0 11
5 20 10 20 6 0 10 -20 10 -44z m-407 -1 c-7 -43 12 -72 34 -53 11 8 14 24 10
50 -4 33 -3 38 15 38 16 0 18 -3 9 -14 -6 -7 -9 -20 -6 -28 11 -28 -13 -68
-39 -68 -30 0 -38 11 -46 67 -6 37 -4 43 11 43 15 0 17 -6 12 -35z m251 3 c8
-5 7 -8 -1 -8 -7 0 -13 -10 -13 -23 0 -13 6 -29 13 -36 10 -10 8 -12 -8 -9
-14 2 -22 14 -26 38 -6 38 10 88 19 60 3 -8 10 -18 16 -22z m286 10 c0 -20 -1
-20 -18 -5 -10 10 -22 14 -25 10 -12 -12 -7 -20 19 -31 38 -18 30 -56 -13 -60
-25 -2 -33 1 -33 12 0 18 15 21 25 6 3 -5 12 -7 20 -4 19 8 10 23 -21 34 -23
9 -32 38 -17 53 3 4 19 7 35 7 22 0 28 -5 28 -22z m40 7 c0 -8 6 -15 13 -15 9
0 8 -3 -2 -9 -9 -6 -12 -20 -9 -40 3 -20 1 -30 -6 -28 -12 4 -24 63 -18 90 5
21 22 23 22 2z m130 0 c0 -8 6 -15 13 -15 9 0 8 -3 -2 -9 -9 -6 -12 -20 -9
-40 3 -20 1 -30 -6 -28 -12 4 -24 63 -18 90 5 21 22 23 22 2z m210 -3 c0 -4
-6 -14 -12 -21 -11 -12 -9 -13 7 -7 15 6 17 4 8 -5 -21 -21 -35 2 -24 39 2 6
21 1 21 -6z m-770 -36 c0 -13 3 -31 6 -40 4 -11 1 -16 -10 -16 -12 0 -16 10
-16 35 0 19 -5 35 -11 35 -7 0 -10 -14 -7 -35 3 -27 0 -35 -12 -35 -12 0 -16
10 -15 40 0 38 1 40 33 40 27 0 32 -4 32 -24z m52 -16 c3 -31 0 -40 -12 -40
-11 0 -15 11 -15 40 0 23 5 40 11 40 7 0 14 -18 16 -40z m126 13 c3 -18 -2
-23 -18 -23 -12 0 -19 -4 -15 -10 3 -5 12 -7 20 -3 8 3 15 0 15 -7 0 -6 -11
-10 -27 -8 -29 3 -41 32 -29 64 9 24 50 13 54 -13z m343 -15 c6 -37 5 -38 -27
-38 -32 0 -45 14 -37 38 3 6 13 12 24 12 26 0 24 18 -3 23 -16 4 -13 5 7 4 26
-2 30 -6 36 -39z m127 15 c3 -19 -1 -23 -23 -23 -16 0 -24 -4 -20 -10 4 -6 15
-8 26 -5 11 4 19 2 19 -4 0 -6 -11 -11 -25 -11 -32 0 -50 32 -35 61 15 27 54
22 58 -8z m72 16 c0 -6 -9 -8 -22 -4 -23 6 -23 6 1 -13 30 -24 22 -52 -14 -52
-24 0 -32 10 -18 23 3 4 12 2 20 -4 8 -7 13 -8 13 -1 0 5 -10 16 -22 24 -12 8
-18 19 -14 26 9 15 56 16 56 1z m-941 -38 c8 -5 11 -16 7 -28 -6 -17 -13 -20
-49 -16 -54 6 -69 -10 -75 -80 -6 -81 41 -128 98 -97 15 8 21 6 31 -11 15 -29
-2 -39 -67 -39 -38 0 -59 6 -79 22 -31 24 -55 74 -55 115 0 44 37 109 73 127
35 17 94 21 116 7z m155 -71 c28 -10 40 -29 51 -77 l7 -33 -61 0 c-45 0 -61
-4 -61 -14 0 -25 28 -39 64 -32 41 8 59 -10 31 -31 -31 -22 -92 -16 -120 11
-33 33 -41 72 -24 120 19 56 60 76 113 56z m128 -1 c3 -9 9 -9 25 0 61 32 83
3 83 -110 0 -88 0 -89 -25 -89 -25 0 -25 1 -25 81 0 78 -1 80 -22 77 -21 -3
-23 -10 -28 -78 -5 -72 -6 -75 -30 -75 -25 0 -25 1 -28 89 -2 49 -1 95 2 103
7 16 43 17 48 2z m262 1 c39 -14 23 -40 -22 -37 -50 3 -49 -21 2 -38 116 -40
39 -151 -82 -119 -16 5 -22 13 -20 28 2 13 9 19 18 17 8 -2 30 -6 48 -9 29 -4
33 -2 30 13 -1 10 -16 23 -33 28 -68 22 -85 70 -39 106 29 23 59 26 98 11z
m114 -73 c3 -74 4 -78 25 -75 20 3 22 10 27 78 5 68 7 75 28 78 22 3 22 2 22
-102 0 -98 -1 -106 -19 -106 -11 0 -21 5 -23 11 -2 7 -12 7 -31 -2 -20 -9 -33
-9 -52 -1 -24 11 -25 15 -25 107 0 94 1 96 23 93 20 -3 22 -9 25 -81z m262 73
c31 -17 13 -39 -28 -37 -49 3 -50 -23 -2 -36 19 -5 41 -13 48 -19 19 -17 14
-65 -10 -88 -40 -37 -149 -20 -133 22 5 13 12 14 40 5 18 -5 40 -7 49 -4 25
10 8 34 -29 41 -34 7 -65 37 -65 64 0 7 11 24 25 37 26 27 72 33 105 15z
m-263 -228 c6 -4 11 -23 10 -42 -2 -30 -5 -35 -27 -35 -20 0 -26 6 -28 28 -6
50 12 70 45 49z m107 -39 c-10 -42 -24 -51 -24 -16 0 26 6 36 28 42 1 1 -1
-11 -4 -26z m54 15 c18 -18 15 -28 -10 -29 -17 -1 -19 -2 -5 -6 20 -5 23 -23
3 -23 -24 0 -39 26 -26 49 12 24 21 26 38 9z m60 -26 c3 -26 0 -32 -17 -32
-28 0 -37 21 -16 37 11 7 13 13 6 13 -7 0 -9 5 -6 11 12 19 30 3 33 -29z
m-308 13 c10 -12 10 -18 0 -30 -11 -13 -64 -15 -365 -15 -195 0 -360 3 -369 6
-16 6 -22 35 -9 47 3 4 169 7 368 7 310 0 364 -2 375 -15z m131 -7 l2 -23 4
23 c6 32 25 27 21 -5 -2 -20 -9 -28 -23 -28 -14 0 -21 8 -23 28 -2 15 1 27 7
27 6 0 12 -10 12 -22z m210 0 l2 -23 4 23 c6 32 25 27 21 -5 -2 -20 -9 -28
-23 -28 -14 0 -21 8 -23 28 -2 15 1 27 7 27 6 0 12 -10 12 -22z"/>
<path d="M1314 1325 c-8 -19 2 -45 16 -45 5 0 10 14 10 30 0 31 -16 41 -26 15z"/>
<path d="M1240 1330 c0 -5 7 -10 16 -10 8 0 12 5 9 10 -3 6 -10 10 -16 10 -5
0 -9 -4 -9 -10z"/>
<path d="M1575 1301 c-6 -11 9 -23 19 -14 9 9 7 23 -3 23 -6 0 -12 -4 -16 -9z"/>
<path d="M1705 1330 c-3 -5 1 -10 9 -10 9 0 16 5 16 10 0 6 -4 10 -9 10 -6 0
-13 -4 -16 -10z"/>
<path d="M982 1188 c-19 -19 -14 -28 18 -28 17 0 30 4 30 8 0 9 -21 32 -30 32
-3 0 -11 -5 -18 -12z"/>
<path d="M1510 980 c0 -5 5 -10 10 -10 6 0 10 5 10 10 0 6 -4 10 -10 10 -5 0
-10 -4 -10 -10z"/>
<path d="M1510 950 c0 -5 5 -10 10 -10 6 0 10 5 10 10 0 6 -4 10 -10 10 -5 0
-10 -4 -10 -10z"/>
<path d="M2918 1664 c-166 -40 -312 -176 -370 -342 -33 -95 -33 -249 0 -344
58 -169 205 -303 374 -343 212 -50 424 31 549 208 70 100 94 178 94 307 0 84
-5 119 -23 172 -44 126 -150 247 -269 307 -97 48 -242 63 -355 35z m-130 -271
c2 -9 -5 -11 -26 -7 -21 4 -31 2 -35 -10 -14 -37 23 -62 51 -34 9 9 12 8 12
-4 0 -29 -49 -37 -74 -12 -21 20 -20 48 0 69 19 18 65 17 72 -2z m77 -19 c18
-18 11 -29 -20 -37 -18 -4 -17 -5 3 -6 27 -1 20 -21 -8 -21 -16 0 -40 26 -40
44 0 8 31 36 40 36 5 0 16 -7 25 -16z m78 7 c10 -1 9 -71 -2 -71 -5 0 -11 11
-13 25 -4 35 -22 35 -29 -1 -7 -35 -20 -13 -15 26 4 30 1 27 29 24 12 -1 25
-3 30 -3z m65 -9 c2 -8 -3 -10 -15 -7 -11 4 -9 1 5 -6 40 -21 17 -62 -25 -44
-16 7 -15 9 7 15 15 5 18 8 8 9 -24 1 -32 19 -17 37 13 16 31 14 37 -4z m42
-12 c0 -36 17 -40 22 -5 3 24 21 32 24 10 0 -5 2 -16 2 -22 1 -7 11 -13 23
-13 21 0 21 0 -1 18 -19 15 -20 19 -7 30 8 7 22 10 31 6 22 -8 21 -28 -1 -20
-16 5 -16 4 1 -8 34 -27 13 -44 -51 -43 l-58 2 -3 38 c-2 21 1 37 7 37 6 0 11
-13 11 -30z m-256 -122 c8 -22 6 -32 -9 -48 -22 -24 -42 -25 -67 -3 -21 18
-23 36 -7 64 16 31 71 22 83 -13z m79 3 c5 0 7 -16 5 -33 -2 -27 -7 -33 -25
-32 -16 0 -23 -5 -23 -18 0 -10 -4 -18 -10 -18 -5 0 -10 24 -10 54 0 59 -4 57
63 47z m83 -8 c17 -17 16 -18 -17 -23 -20 -3 -29 -8 -22 -13 6 -4 19 -4 28 0
13 4 16 2 13 -8 -2 -8 -14 -15 -26 -17 -28 -4 -47 30 -32 58 13 25 33 26 56 3z
m82 -25 c2 -22 -1 -38 -7 -38 -6 0 -11 14 -11 31 0 20 -4 29 -12 26 -7 -2 -13
-13 -13 -25 0 -12 -4 -22 -8 -22 -4 0 -7 2 -7 5 0 3 0 19 0 36 0 27 3 30 28
27 23 -3 27 -8 30 -40z m-294 -120 c1 -39 -1 -48 -15 -48 -14 0 -16 7 -12 40
4 27 2 40 -6 40 -7 0 -9 5 -6 11 4 5 14 9 22 7 11 -2 16 -17 17 -50z m452 27
c9 -8 11 -15 5 -15 -15 0 -14 -33 2 -49 10 -10 8 -12 -8 -9 -20 3 -36 49 -27
76 5 16 10 15 28 -3z m-366 -40 c0 -19 -4 -35 -10 -35 -5 0 -10 11 -10 25 0
14 -4 25 -10 25 -5 0 -10 -11 -10 -25 0 -14 -4 -25 -10 -25 -5 0 -10 16 -10
35 0 32 2 35 30 35 28 0 30 -3 30 -35z m76 24 c4 -8 9 -8 17 0 18 18 55 13 62
-9 12 -39 -35 -66 -63 -38 -9 9 -12 9 -12 0 0 -7 -4 -12 -10 -12 -5 0 -10 11
-10 25 0 16 -6 25 -15 25 -9 0 -15 -9 -15 -25 0 -14 -4 -25 -10 -25 -5 0 -10
16 -10 35 0 32 2 35 29 35 17 0 33 -5 37 -11z m117 -11 l4 -23 8 23 c11 32 29
28 20 -5 -8 -35 -22 -50 -34 -37 -15 15 -25 64 -13 64 6 0 13 -10 15 -22z
m117 3 c0 -11 3 -26 6 -35 5 -13 -1 -16 -29 -16 -37 0 -52 18 -42 51 9 27 65
27 65 0z m110 -16 c0 -19 -4 -35 -9 -35 -5 0 -11 16 -13 35 -3 24 0 35 9 35 8
0 13 -13 13 -35z m79 17 c13 -25 -5 -52 -34 -52 -18 0 -26 7 -31 24 -3 14 -3
30 1 35 10 17 53 13 64 -7z m81 -17 c0 -19 -4 -35 -10 -35 -5 0 -10 11 -10 25
0 14 -4 25 -10 25 -5 0 -10 -9 -10 -19 0 -11 -4 -23 -10 -26 -6 -4 -10 8 -10
29 0 33 2 36 30 36 28 0 30 -3 30 -35z m-530 -89 c0 -8 7 -13 16 -12 9 0 21
-7 28 -16 15 -25 -3 -52 -38 -56 -25 -3 -26 -2 -26 53 0 35 4 54 10 50 6 -3
10 -12 10 -19z m-150 -32 c0 -24 5 -34 15 -34 8 0 15 -4 15 -10 0 -5 -11 -10
-25 -10 -23 0 -25 3 -25 51 0 31 4 48 10 44 6 -3 10 -22 10 -41z m110 -5 c0
-16 1 -32 3 -36 1 -5 -14 -8 -33 -8 -29 0 -36 4 -38 23 -5 30 12 50 43 50 21
0 25 -5 25 -29z m144 25 c22 -8 20 -28 -1 -20 -16 5 -16 4 1 -8 22 -18 15 -46
-13 -46 -28 0 -37 20 -9 21 15 0 18 3 8 6 -22 9 -30 26 -18 40 12 15 11 15 32
7z"/>
<path d="M2726 1233 c-4 -9 0 -23 9 -32 13 -14 17 -14 31 1 9 9 14 24 11 32
-8 21 -43 20 -51 -1z"/>
<path d="M2835 1220 c-7 -12 2 -30 16 -30 5 0 9 9 9 20 0 21 -15 27 -25 10z"/>
<path d="M2937 1084 c-9 -10 2 -24 19 -24 8 0 14 7 14 15 0 15 -21 21 -33 9z"/>
<path d="M3090 1075 c0 -8 7 -15 15 -15 8 0 15 7 15 15 0 8 -7 15 -15 15 -8 0
-15 -7 -15 -15z"/>
<path d="M3287 1093 c-4 -3 -7 -12 -7 -20 0 -15 26 -18 34 -4 7 11 -18 33 -27
24z"/>
<path d="M2886 953 c-12 -12 -6 -33 9 -33 8 0 15 6 15 14 0 17 -14 28 -24 19z"/>
<path d="M2796 953 c-12 -12 -6 -33 9 -33 8 0 15 6 15 14 0 17 -14 28 -24 19z"/>
</g>
</svg>
