<?xml version="1.0" standalone="no"?>
<!DOCTYPE svg PUBLIC "-//W3C//DTD SVG 20010904//EN"
 "http://www.w3.org/TR/2001/REC-SVG-20010904/DTD/svg10.dtd">
<svg version="1.0" xmlns="http://www.w3.org/2000/svg"
 width="151.000000pt" height="57.000000pt" viewBox="0 0 151.000000 57.000000"
 preserveAspectRatio="xMidYMid meet">

<g transform="translate(0.000000,57.000000) scale(0.100000,-0.100000)"
fill="#000000" stroke="none">
<path d="M260 525 c0 -10 7 -15 18 -13 21 4 19 22 -2 26 -10 2 -16 -3 -16 -13z"/>
<path d="M357 523 c-4 -3 -7 -12 -7 -20 0 -15 26 -18 34 -4 7 11 -18 33 -27
24z"/>
<path d="M170 505 c0 -10 7 -15 18 -13 21 4 19 22 -2 26 -10 2 -16 -3 -16 -13z"/>
<path d="M268 475 c-7 -8 3 -55 12 -55 4 0 7 14 8 30 1 28 -7 37 -20 25z"/>
<path d="M96 461 c-7 -11 18 -33 27 -24 4 3 7 12 7 20 0 15 -26 18 -34 4z"/>
<path d="M196 462 c-2 -4 5 -19 16 -32 14 -18 18 -20 14 -7 -3 10 -6 25 -6 33
0 15 -16 19 -24 6z"/>
<path d="M335 455 c-3 -8 -7 -22 -10 -30 -2 -8 0 -15 5 -15 6 0 10 7 10 15 0
8 5 15 10 15 6 0 10 7 10 15 0 8 -5 15 -10 15 -6 0 -13 -7 -15 -15z"/>
<path d="M426 461 c-7 -11 18 -33 27 -24 4 3 7 12 7 20 0 15 -26 18 -34 4z"/>
<path d="M140 419 c0 -12 29 -38 43 -39 4 0 0 11 -9 25 -17 26 -34 33 -34 14z"/>
<path d="M387 409 c-10 -11 -16 -23 -14 -26 6 -6 47 28 47 39 0 14 -15 8 -33
-13z"/>
<path d="M50 390 c-12 -7 -12 -12 -2 -22 9 -9 15 -9 24 0 16 16 -2 34 -22 22z"/>
<path d="M481 386 c-12 -14 -5 -26 16 -26 15 0 18 26 4 34 -5 3 -14 0 -20 -8z"/>
<path d="M650 375 c0 -8 7 -15 15 -15 8 0 15 7 15 15 0 8 -7 15 -15 15 -8 0
-15 -7 -15 -15z"/>
<path d="M784 376 c-43 -19 -64 -53 -64 -101 0 -49 22 -83 66 -101 41 -17 86
-9 115 22 29 31 16 44 -14 16 -55 -51 -147 -12 -147 63 0 74 92 114 146 64 12
-11 24 -16 28 -11 8 14 -35 49 -69 56 -17 3 -44 -1 -61 -8z"/>
<path d="M102 358 c2 -6 17 -13 34 -15 l29 -4 -29 16 c-34 18 -39 19 -34 3z"/>
<path d="M418 356 c-10 -7 -18 -17 -18 -21 0 -4 6 -2 14 4 8 6 18 10 22 9 5
-2 10 1 12 7 5 15 -11 16 -30 1z"/>
<path d="M656 323 c-3 -3 -6 -39 -6 -80 0 -58 3 -73 15 -73 12 0 15 15 15 74
0 69 -8 95 -24 79z"/>
<path d="M994 318 c-24 -11 -44 -48 -44 -78 0 -10 11 -31 24 -46 33 -39 89
-39 122 0 32 37 30 71 -5 107 -30 30 -60 35 -97 17z m74 -24 c26 -18 30 -75 7
-94 -21 -17 -64 -16 -82 3 -23 23 -19 68 7 89 27 22 39 22 68 2z"/>
<path d="M1157 323 c-4 -3 -7 -39 -7 -80 0 -58 3 -73 15 -73 11 0 15 13 15 54
0 58 16 86 49 86 32 0 51 -33 51 -88 0 -29 5 -52 10 -52 6 0 10 27 10 60 0 47
-4 64 -20 80 -21 21 -55 26 -80 10 -9 -5 -19 -5 -26 0 -6 6 -14 7 -17 3z"/>
<path d="M1356 317 c-33 -24 -17 -59 34 -77 47 -16 57 -35 27 -54 -13 -8 -24
-7 -47 6 -30 17 -51 9 -27 -10 43 -36 117 -15 117 32 0 23 -16 34 -77 51 -27
7 -30 33 -7 42 10 3 30 1 45 -4 33 -13 49 1 20 16 -27 15 -63 14 -85 -2z"/>
<path d="M30 291 c0 -12 6 -21 16 -21 9 0 14 7 12 17 -5 25 -28 28 -28 4z"/>
<path d="M495 301 c-8 -15 3 -31 21 -31 9 0 14 7 12 17 -4 20 -24 28 -33 14z"/>
<path d="M85 292 c-2 -3 -3 -8 0 -12 5 -9 65 0 65 9 0 8 -57 11 -65 3z"/>
<path d="M410 288 c0 -4 9 -8 20 -8 11 0 23 0 27 -1 4 0 9 4 11 10 2 5 -11 9
-27 9 -17 -1 -31 -5 -31 -10z"/>
<path d="M123 233 c-13 -2 -23 -9 -23 -14 0 -13 22 -10 44 6 20 15 19 16 -21
8z"/>
<path d="M415 227 c23 -19 45 -22 45 -7 0 6 -6 10 -14 10 -8 0 -23 3 -33 6
-16 6 -16 5 2 -9z"/>
<path d="M50 210 c-12 -7 -12 -12 -2 -22 9 -9 15 -9 24 0 16 16 -2 34 -22 22z"/>
<path d="M480 200 c0 -11 7 -20 15 -20 8 0 15 9 15 20 0 11 -7 20 -15 20 -8 0
-15 -9 -15 -20z"/>
<path d="M156 179 c-11 -11 -16 -22 -13 -26 4 -3 16 3 27 15 25 26 12 36 -14
11z"/>
<path d="M370 193 c1 -14 27 -43 39 -43 19 0 12 17 -14 34 -14 9 -25 13 -25 9z"/>
<path d="M212 150 c-14 -23 -16 -40 -3 -40 7 0 23 51 17 57 -1 1 -7 -7 -14
-17z"/>
<path d="M320 161 c0 -6 4 -12 10 -16 5 -3 7 -12 3 -20 -3 -10 1 -15 12 -15
10 0 14 5 11 13 -3 6 -9 20 -12 30 -7 18 -24 24 -24 8z"/>
<path d="M270 135 c0 -14 0 -27 0 -30 0 -3 3 -5 7 -5 4 0 8 13 9 30 1 16 -2
30 -7 30 -5 0 -9 -11 -9 -25z"/>
<path d="M94 129 c-3 -6 -2 -15 4 -21 13 -13 32 -2 32 18 0 16 -26 19 -36 3z"/>
<path d="M426 132 c-8 -13 11 -35 23 -28 16 10 14 36 -3 36 -8 0 -17 -4 -20
-8z"/>
<path d="M174 79 c-10 -17 13 -36 27 -22 12 12 4 33 -11 33 -5 0 -12 -5 -16
-11z"/>
<path d="M354 79 c-10 -17 13 -36 27 -22 12 12 4 33 -11 33 -5 0 -12 -5 -16
-11z"/>
<path d="M260 56 c0 -8 4 -17 8 -20 13 -8 35 11 28 23 -10 16 -36 14 -36 -3z"/>
</g>
</svg>
