<?xml version="1.0" standalone="no"?>
<!DOCTYPE svg PUBLIC "-//W3C//DTD SVG 20010904//EN"
 "http://www.w3.org/TR/2001/REC-SVG-20010904/DTD/svg10.dtd">
<svg version="1.0" xmlns="http://www.w3.org/2000/svg"
 width="512.000000pt" height="512.000000pt" viewBox="0 0 512.000000 512.000000"
 preserveAspectRatio="xMidYMid meet">

<g transform="translate(0.000000,512.000000) scale(0.100000,-0.100000)"
fill="#000000" stroke="none">
<path d="M1227 3828 c-14 -12 -16 -106 -19 -1078 l-3 -1065 930 0 930 0 3 27
3 27 60 -39 c79 -51 148 -73 229 -72 82 0 119 16 192 80 68 60 112 76 188 69
67 -6 138 -40 200 -96 l45 -40 -64 -1 c-35 0 -88 -8 -118 -17 l-53 -17 0 -121
0 -122 46 -42 46 -41 251 2 252 3 3 98 3 99 -77 79 -78 79 -81 0 -81 0 -56 54
c-95 92 -209 134 -311 115 -61 -11 -80 -22 -147 -81 -63 -56 -111 -72 -194
-65 -65 6 -159 47 -218 97 l-38 31 0 1014 c0 993 0 1015 -19 1025 -31 16
-1802 14 -1824 -2z m1797 -24 c9 -3 16 -17 16 -30 l0 -24 -895 0 -895 0 0 23
c0 13 3 27 7 30 8 9 1746 9 1767 1z m16 -1051 c0 -744 -3 -954 -12 -945 -9 9
-219 12 -884 12 l-872 0 -19 -26 c-19 -26 -19 -12 -16 872 2 495 6 932 9 972
l6 72 894 0 894 0 0 -957z m-32 -998 c7 -14 12 -28 12 -30 0 -3 -398 -5 -885
-5 l-884 0 17 30 17 30 856 0 856 0 11 -25z m876 -161 c8 -22 2 -27 -22 -20
-31 10 -36 36 -8 36 13 0 27 -7 30 -16z m244 4 c24 -24 10 -28 -87 -28 -77 0
-103 4 -115 16 -9 8 -16 17 -16 20 0 11 207 3 218 -8z m82 -3 c7 -9 10 -18 6
-22 -8 -9 -56 14 -56 27 0 15 36 12 50 -5z m-159 -46 l204 0 23 -30 24 -29
-229 0 -229 0 -26 28 c-48 52 -47 104 1 58 l27 -26 205 -1z m-221 -147 l0 -75
-25 23 c-22 21 -25 32 -25 92 l0 68 25 -16 c23 -15 25 -22 25 -92z m490 -22
l0 -80 -230 0 -230 0 0 80 0 80 230 0 230 0 0 -80z"/>
<path d="M1783 3570 c-247 -9 -272 -12 -313 -46 l-30 -26 0 -468 c0 -541 -6
-508 98 -532 66 -14 1076 -19 1175 -5 42 6 67 16 87 35 l29 27 4 450 c4 323 2
460 -7 484 -21 64 -46 70 -356 81 -297 11 -364 11 -687 0z m939 -46 c20 -3 46
-15 57 -25 21 -19 21 -27 21 -473 0 -533 13 -483 -132 -498 -121 -13 -945 -13
-1067 0 -143 15 -132 -30 -131 495 1 268 5 447 11 458 17 34 53 43 189 50 148
8 993 2 1052 -7z"/>
<path d="M1839 3194 c-7 -8 -14 -40 -17 -69 -4 -53 -6 -56 -55 -87 -28 -18
-55 -36 -60 -39 -5 -4 -6 -12 -3 -18 5 -7 22 -1 51 19 24 16 47 30 50 30 4 0
4 -22 0 -50 -4 -32 -3 -50 3 -50 12 0 17 15 27 73 3 20 10 37 15 37 25 0 40
-15 40 -41 0 -66 44 -104 94 -81 12 5 34 8 49 5 15 -3 40 0 56 7 25 10 34 9
53 -4 30 -22 49 -20 89 7 32 21 36 22 61 8 21 -12 33 -13 56 -5 21 8 31 8 40
-3 7 -7 23 -13 36 -13 25 0 66 38 66 61 0 8 15 21 33 29 38 18 37 36 -1 33
-15 -2 -41 5 -59 14 -45 24 -78 7 -93 -45 -14 -53 -33 -68 -66 -53 -14 6 -24
15 -22 19 54 104 72 188 44 211 -19 16 -61 7 -70 -14 -3 -9 -6 -55 -7 -103 -1
-98 -19 -132 -70 -132 -38 0 -39 14 -7 78 42 83 37 182 -9 182 -27 0 -44 -48
-50 -140 -5 -77 -9 -93 -27 -105 -11 -8 -29 -15 -38 -15 -17 0 -17 2 -3 30 30
58 12 100 -36 85 -23 -8 -34 -45 -25 -86 6 -29 5 -30 -27 -27 -30 3 -32 6 -38
47 -6 44 -28 71 -58 71 -10 0 -4 11 18 34 50 51 44 115 -10 116 -9 0 -22 -7
-30 -16z m49 -31 c2 -12 -8 -33 -23 -49 l-26 -29 7 45 c3 25 8 49 11 53 8 14
28 1 31 -20z m425 2 c7 -17 -19 -125 -34 -139 -12 -13 -12 95 1 128 11 29 25
34 33 11z m-140 -50 c-2 -51 -20 -105 -35 -105 -10 0 -4 82 9 138 10 40 28 17
26 -33z m281 -81 c22 -21 20 -50 -5 -75 -25 -25 -41 -21 -53 14 -7 19 -5 32 8
51 19 30 29 32 50 10z m-414 -15 c0 -17 -20 -49 -30 -49 -11 0 -14 43 -3 53
10 11 33 8 33 -4z"/>
<path d="M2513 2949 c-15 -15 -5 -39 17 -39 22 0 32 24 17 39 -6 6 -14 11 -17
11 -3 0 -11 -5 -17 -11z"/>
<path d="M2160 2150 c0 -19 7 -20 235 -20 202 0 235 -2 235 -15 0 -12 18 -15
100 -15 l100 0 0 35 0 35 -335 0 c-328 0 -335 0 -335 -20z"/>
<path d="M997 1523 c-4 -3 -7 -21 -7 -40 l0 -33 -68 0 -69 0 -62 -65 c-34 -36
-60 -69 -56 -75 9 -15 2791 -14 2801 1 3 6 -22 39 -57 75 l-63 64 -88 0 -87 0
-3 38 -3 37 -134 3 c-146 3 -161 -2 -161 -49 0 -22 -5 -29 -19 -29 -16 0 -20
8 -23 38 l-3 37 -134 3 c-148 3 -166 -3 -159 -50 4 -24 1 -28 -18 -28 -19 0
-23 6 -26 38 l-3 37 -430 0 -430 0 -3 -37 c-3 -36 -5 -38 -37 -38 -32 0 -34 2
-37 38 l-3 37 -140 0 -140 0 -3 -37 c-3 -30 -7 -38 -23 -38 -14 0 -19 7 -19
28 0 48 -13 52 -155 52 -73 0 -135 -3 -138 -7z m253 -53 c0 -19 -7 -20 -115
-20 -108 0 -115 1 -115 20 0 19 7 20 115 20 108 0 115 -1 115 -20z m340 0 c0
-19 -7 -20 -115 -20 -108 0 -115 1 -115 20 0 19 7 20 115 20 108 0 115 -1 115
-20z m940 0 c0 -20 -7 -20 -405 -20 -398 0 -405 0 -405 20 0 20 7 20 405 20
398 0 405 0 405 -20z m340 0 c0 -19 -7 -20 -115 -20 -108 0 -115 1 -115 20 0
19 7 20 115 20 108 0 115 -1 115 -20z m340 0 c0 -19 -7 -20 -115 -20 -108 0
-115 1 -115 20 0 19 7 20 115 20 108 0 115 -1 115 -20z m227 -92 c18 -18 33
-36 33 -40 0 -4 -601 -8 -1335 -8 -734 0 -1335 3 -1335 7 0 4 14 22 32 40 l32
33 1270 0 1270 0 33 -32z"/>
</g>
</svg>
