<?xml version="1.0" standalone="no"?>
<!DOCTYPE svg PUBLIC "-//W3C//DTD SVG 20010904//EN"
 "http://www.w3.org/TR/2001/REC-SVG-20010904/DTD/svg10.dtd">
<svg version="1.0" xmlns="http://www.w3.org/2000/svg"
 width="1619.000000pt" height="417.000000pt" viewBox="0 0 1619.000000 417.000000"
 preserveAspectRatio="xMidYMid meet">

<g transform="translate(0.000000,417.000000) scale(0.100000,-0.100000)"
fill="#000000" stroke="none">
<path d="M1725 4154 c-431 -78 -841 -300 -1143 -618 -82 -88 -212 -253 -212
-271 0 -5 32 -18 72 -27 206 -50 400 -208 577 -472 73 -108 183 -303 341 -601
270 -511 408 -714 552 -813 26 -18 49 -28 53 -23 7 12 -12 1077 -25 1401 -19
464 -55 1029 -83 1315 -14 139 -5 132 -132 109z"/>
<path d="M2346 4158 c-2 -7 -7 -47 -10 -87 -69 -840 -94 -1377 -105 -2214 -4
-349 -3 -527 4 -527 22 0 83 46 141 106 113 117 251 338 469 754 271 514 404
716 576 868 111 98 245 168 357 187 23 4 42 12 42 19 0 24 -124 180 -228 288
-172 178 -348 306 -577 418 -163 81 -298 129 -456 163 -162 36 -208 41 -213
25z"/>
<path d="M8806 3380 c-55 -28 -82 -55 -111 -114 -66 -133 3 -289 148 -331 172
-50 343 118 293 288 -41 141 -206 219 -330 157z"/>
<path d="M15365 3155 c-14 -13 -25 -30 -25 -38 0 -18 -69 -534 -76 -568 -5
-25 -8 -26 -142 -43 -75 -9 -145 -20 -154 -22 -15 -5 -18 -18 -18 -82 0 -121
2 -122 166 -122 l134 0 0 -627 c0 -678 2 -709 54 -810 70 -140 189 -209 376
-220 114 -6 259 16 338 52 29 13 80 43 112 66 l60 42 -22 36 c-50 83 -101 153
-114 158 -8 3 -51 -13 -95 -36 -72 -36 -88 -41 -150 -41 -114 0 -174 42 -204
143 -13 43 -15 146 -15 644 l0 593 275 0 275 0 0 120 0 120 -275 0 -275 0 0
330 0 330 -100 0 c-94 0 -103 -2 -125 -25z"/>
<path d="M180 2945 c-188 -419 -230 -923 -114 -1374 91 -357 265 -667 524
-934 270 -279 592 -471 951 -566 132 -35 300 -64 310 -53 13 12 48 162 69 292
21 132 52 479 44 492 -3 4 -15 8 -28 8 -30 0 -118 31 -186 65 -89 44 -171 108
-253 195 -174 185 -293 421 -487 965 -175 492 -280 699 -425 841 -91 89 -172
127 -286 132 l-89 4 -30 -67z"/>
<path d="M3783 2991 c-212 -77 -353 -293 -562 -861 -148 -401 -195 -520 -267
-666 -147 -302 -315 -492 -527 -595 -44 -21 -104 -44 -134 -50 -30 -7 -57 -19
-60 -27 -15 -38 39 -492 80 -679 l22 -98 59 3 c81 3 219 35 372 86 731 244
1271 879 1399 1646 23 136 31 413 15 551 -24 219 -88 464 -169 642 l-30 67
-73 0 c-45 -1 -93 -8 -125 -19z"/>
<path d="M5990 2571 c-139 -37 -257 -108 -377 -226 -40 -40 -73 -67 -73 -61
-1 39 -31 220 -40 236 -18 33 -45 40 -164 40 l-116 0 0 -1280 0 -1280 170 0
170 0 0 421 0 421 56 -51 c73 -67 163 -116 260 -142 110 -29 307 -29 416 -1
420 112 664 568 609 1139 -42 435 -225 706 -527 783 -101 26 -290 27 -384 1z
m272 -280 c176 -69 276 -270 294 -591 16 -291 -51 -532 -186 -671 -94 -96
-207 -139 -363 -139 -161 0 -270 42 -379 148 l-68 65 0 471 0 471 93 90 c149
147 246 187 437 182 90 -3 127 -8 172 -26z"/>
<path d="M7595 2575 c-144 -32 -254 -93 -347 -193 -161 -175 -181 -438 -48
-625 77 -107 209 -175 557 -287 177 -56 260 -101 309 -165 24 -32 29 -49 32
-109 7 -135 -56 -234 -186 -294 -50 -23 -73 -27 -182 -30 -115 -4 -131 -2
-205 23 -44 14 -121 51 -171 81 -92 55 -134 65 -175 43 -16 -8 -63 -73 -113
-156 -19 -33 233 -174 384 -215 114 -30 387 -33 490 -4 275 76 436 250 470
509 31 231 -62 394 -285 503 -51 24 -180 73 -286 108 -221 72 -303 110 -359
166 -44 44 -55 82 -48 166 6 68 43 125 112 172 71 47 144 66 256 66 121 -1
198 -21 329 -85 136 -67 148 -64 214 46 l47 80 -32 28 c-47 40 -174 114 -234
136 -132 50 -388 67 -529 36z"/>
<path d="M11904 2575 c-91 -16 -172 -40 -240 -70 -69 -31 -205 -119 -266 -174
l-48 -42 31 -61 c43 -85 70 -108 130 -108 40 0 58 7 116 47 37 25 108 66 158
89 197 95 430 75 539 -46 78 -86 106 -184 106 -372 l0 -128 -87 0 c-199 0
-450 -37 -612 -90 -310 -101 -471 -274 -471 -505 0 -146 38 -249 126 -344 97
-106 215 -146 419 -145 226 1 378 55 557 198 106 86 96 89 124 -48 23 -116 28
-120 165 -124 l109 -4 0 639 c0 680 -4 755 -47 886 -69 208 -238 358 -455 401
-92 19 -255 19 -354 1z m526 -1269 l0 -204 -69 -59 c-146 -123 -262 -173 -425
-181 -222 -10 -341 76 -354 258 -8 112 43 196 159 263 121 70 369 120 627 126
l62 1 0 -204z"/>
<path d="M14005 2580 c-170 -27 -311 -101 -457 -239 -32 -30 -58 -48 -58 -40
-1 8 -7 58 -14 111 -18 143 -25 148 -178 148 l-118 0 0 -955 0 -955 160 0 160
0 0 704 0 704 81 76 c137 126 278 186 442 186 206 0 327 -91 384 -287 14 -51
17 -140 21 -720 l4 -663 164 0 164 0 0 668 c0 423 -4 690 -11 728 -48 276
-201 460 -432 518 -75 20 -236 27 -312 16z"/>
<path d="M8730 1605 l0 -955 170 0 170 0 0 955 0 955 -170 0 -170 0 0 -955z"/>
<path d="M9392 2363 c45 -109 219 -538 389 -953 l307 -755 155 -3 154 -2 387
948 c212 522 386 952 386 955 0 4 -67 7 -149 7 -141 0 -151 -1 -175 -22 -31
-28 -528 -1268 -571 -1425 -16 -57 -30 -102 -31 -100 -2 1 -12 43 -23 93 -13
61 -103 304 -276 745 -206 525 -262 659 -286 682 l-29 27 -159 0 -159 0 80
-197z"/>
</g>
</svg>
