<?xml version="1.0" standalone="no"?>
<!DOCTYPE svg PUBLIC "-//W3C//DTD SVG 20010904//EN"
 "http://www.w3.org/TR/2001/REC-SVG-20010904/DTD/svg10.dtd">
<svg version="1.0" xmlns="http://www.w3.org/2000/svg"
 width="1460.000000pt" height="481.000000pt" viewBox="0 0 1460.000000 481.000000"
 preserveAspectRatio="xMidYMid meet">

<g transform="translate(0.000000,481.000000) scale(0.100000,-0.100000)"
fill="#000000" stroke="none">
<path d="M1560 4665 l-144 -144 125 6 c128 6 290 -7 413 -33 38 -8 70 -13 72
-11 6 6 -151 170 -238 249 l-85 77 -143 -144z"/>
<path d="M2110 4240 l0 -162 -52 42 c-70 55 -196 116 -292 140 -90 23 -261 27
-348 9 -72 -15 -166 -61 -207 -101 -107 -104 -108 -272 -4 -389 75 -83 169
-139 456 -273 l118 -56 53 40 c28 22 94 59 146 84 225 106 464 129 779 75 63
-10 116 -18 117 -16 6 6 -455 474 -615 626 l-151 143 0 -162z"/>
<path d="M4695 4054 c-196 -32 -354 -133 -420 -268 -24 -50 -30 -76 -33 -153
-5 -104 6 -158 49 -243 60 -120 161 -218 404 -391 215 -153 284 -242 293 -374
6 -89 -7 -130 -59 -189 -75 -85 -219 -129 -353 -107 -185 31 -286 131 -317
317 -11 66 -16 74 -33 72 -28 -4 -33 -33 -41 -232 -7 -165 -7 -174 12 -193 28
-28 131 -61 233 -74 108 -15 345 -6 425 15 213 57 372 210 406 391 15 78 6
195 -19 267 -54 152 -162 261 -490 493 -228 161 -293 275 -237 413 71 174 404
206 553 53 45 -47 82 -117 82 -158 0 -37 13 -56 36 -51 17 3 20 18 26 183 4
99 4 183 0 187 -4 3 -41 14 -82 23 -74 16 -371 29 -435 19z"/>
<path d="M372 3478 l-372 -373 375 -375 c206 -206 375 -368 375 -360 0 9 -14
72 -30 140 -17 69 -32 135 -35 147 -4 19 10 12 88 -41 204 -138 409 -206 623
-206 52 0 94 1 94 3 0 1 -7 37 -15 80 -8 45 -15 134 -15 207 0 171 23 291 84
433 l17 38 -98 45 c-379 177 -449 218 -559 328 -76 76 -138 184 -152 264 l-7
42 -373 -372z"/>
<path d="M6086 3824 c-9 -8 -16 -19 -16 -24 0 -46 -243 -1437 -255 -1460 -19
-37 -67 -60 -125 -60 -34 0 -41 -3 -38 -17 3 -17 24 -18 270 -19 147 -1 272 2
279 6 19 13 0 30 -34 30 -49 1 -120 19 -139 37 -11 10 -18 30 -18 54 0 21 27
224 60 451 33 227 60 419 60 426 0 31 27 -14 164 -281 141 -272 350 -648 391
-703 17 -23 24 -25 41 -16 12 6 128 215 288 519 286 540 274 518 280 512 5 -6
137 -892 138 -929 1 -17 -6 -38 -15 -48 -42 -46 -26 -49 295 -57 230 -7 268
-4 268 19 0 9 -22 15 -67 19 -128 11 -179 45 -203 136 -5 20 -59 341 -119 714
-61 374 -115 685 -122 693 -15 19 -33 18 -51 -3 -9 -10 -154 -283 -323 -606
-169 -323 -312 -584 -316 -580 -4 4 -148 271 -319 593 -171 322 -319 591 -328
598 -21 16 -27 15 -46 -4z"/>
<path d="M9341 3802 c-13 -24 -49 -192 -53 -247 -4 -58 24 -60 53 -3 30 61 57
87 103 100 23 6 139 14 259 17 l217 6 0 -605 c0 -591 -5 -706 -33 -751 -14
-22 -65 -39 -120 -39 -31 0 -38 -3 -35 -17 3 -17 28 -18 355 -19 194 0 357 2
364 6 25 16 -3 27 -82 33 -89 7 -123 23 -142 65 -9 20 -13 197 -15 676 l-3
648 198 -5 c152 -3 209 -8 245 -21 64 -24 96 -58 104 -112 5 -34 10 -44 23
-42 18 4 28 74 30 218 l1 85 -654 -3 c-614 -3 -698 -1 -783 24 -15 4 -24 0
-32 -14z"/>
<path d="M8274 3779 c-10 -17 16 -29 61 -29 22 0 56 -8 75 -18 57 -28 58 -40
59 -667 1 -553 -5 -704 -31 -745 -15 -23 -65 -40 -121 -40 -31 0 -38 -3 -35
-17 3 -17 28 -18 358 -18 317 0 355 2 358 16 2 13 -11 17 -78 22 -45 4 -93 12
-108 19 -57 28 -57 21 -60 658 -2 322 -1 618 3 658 9 100 29 123 116 131 50 5
65 10 67 24 3 16 -18 17 -327 17 -231 0 -332 -3 -337 -11z"/>
<path d="M11132 3773 c3 -15 17 -19 74 -24 75 -5 114 -23 136 -61 10 -18 13
-155 13 -638 0 -770 2 -756 -125 -767 -58 -6 -80 -16 -65 -31 7 -8 680 -13
708 -5 9 2 17 10 17 17 0 9 -24 15 -77 19 -86 6 -123 18 -142 49 -21 33 -32
206 -29 458 l3 235 434 3 c341 2 436 0 443 -10 11 -18 10 -386 -2 -536 -6 -71
-16 -134 -24 -151 -18 -33 -60 -51 -122 -51 -32 0 -44 -4 -44 -14 0 -8 8 -17
18 -19 9 -2 172 -4 362 -3 308 1 345 3 348 17 2 13 -11 17 -77 22 -43 3 -92
11 -108 19 -56 27 -57 35 -61 688 -2 327 -1 619 3 648 10 78 35 103 116 111
50 5 65 10 67 24 3 16 -19 17 -348 17 -329 0 -351 -1 -348 -17 3 -15 17 -19
74 -24 80 -6 119 -26 135 -67 13 -33 25 -430 15 -495 l-7 -47 -440 0 -439 0 1
243 c1 285 7 324 59 349 19 10 54 18 76 18 39 0 72 19 57 33 -3 4 -163 7 -355
7 -327 0 -349 -1 -346 -17z"/>
<path d="M2970 3414 c0 -69 -3 -124 -7 -122 -5 2 -42 21 -83 42 -148 77 -269
106 -433 106 -63 0 -139 -7 -174 -15 -71 -17 -176 -62 -212 -92 l-23 -19 66
-54 c141 -114 206 -238 206 -394 0 -201 -126 -408 -329 -538 -36 -23 -68 -43
-70 -45 -10 -7 59 -90 123 -149 47 -44 99 -80 163 -111 l94 -47 559 559 c308
308 560 565 560 570 0 12 -422 435 -433 435 -4 0 -7 -57 -7 -126z"/>
<path d="M1799 2938 c-15 -69 -19 -309 -6 -372 l8 -39 35 34 c19 18 45 56 59
83 46 92 29 230 -40 320 -15 20 -31 36 -35 36 -4 0 -14 -28 -21 -62z"/>
<path d="M1292 1814 l418 -419 181 180 c99 99 184 187 189 196 7 13 -5 22 -70
49 -143 59 -302 184 -383 302 l-32 47 -150 -6 c-162 -6 -302 6 -446 37 -47 11
-94 22 -105 26 -10 4 169 -182 398 -412z"/>
<path d="M3450 1854 c-14 -2 -65 -9 -115 -15 -545 -68 -896 -479 -845 -988 32
-314 204 -558 495 -701 115 -56 190 -82 330 -112 89 -20 131 -22 375 -23 226
0 292 3 372 18 160 31 173 46 209 260 24 138 23 182 -5 182 -13 0 -24 -15 -39
-55 -40 -109 -119 -194 -212 -229 -131 -49 -379 -60 -523 -22 -321 83 -555
322 -623 636 -19 87 -16 312 5 410 60 275 235 451 504 507 81 17 121 19 242
15 362 -13 561 -133 586 -353 6 -47 9 -54 29 -54 30 0 35 20 35 170 1 69 5
159 10 200 5 41 5 79 1 83 -11 11 -299 55 -437 67 -113 9 -340 11 -394 4z"/>
<path d="M5485 1610 c-225 -24 -409 -104 -549 -238 -311 -300 -314 -810 -7
-1112 163 -160 356 -235 631 -247 497 -21 880 244 966 669 24 119 15 305 -20
413 -103 320 -390 502 -814 519 -70 2 -163 1 -207 -4z m247 -116 c170 -44 330
-176 406 -334 67 -140 77 -189 77 -395 0 -158 -3 -190 -23 -260 -33 -115 -75
-186 -152 -258 -107 -102 -250 -144 -418 -126 -266 29 -473 200 -561 464 -91
271 -48 600 98 767 125 141 356 199 573 142z"/>
<path d="M12224 1609 c-401 -36 -690 -252 -786 -586 -32 -112 -32 -314 0 -428
106 -370 480 -585 1016 -585 261 0 554 63 570 123 3 12 6 144 6 293 0 258 1
273 20 297 22 27 74 47 123 47 22 0 28 4 25 18 -3 16 -27 17 -338 17 -300 0
-335 -2 -338 -16 -2 -13 9 -17 65 -21 84 -6 127 -27 142 -69 7 -20 11 -122 11
-273 0 -274 -1 -276 -74 -295 -62 -15 -240 -14 -328 3 -168 33 -283 92 -400
208 -65 65 -85 93 -127 180 -65 135 -84 221 -83 373 1 209 52 346 171 457 126
118 278 164 510 155 280 -11 492 -116 531 -264 7 -26 14 -56 17 -65 2 -10 12
-18 22 -18 15 0 18 21 28 193 6 105 8 195 5 198 -11 10 -301 49 -442 59 -143
11 -217 11 -346 -1z"/>
<path d="M10835 1589 c-33 -5 -262 -8 -510 -7 -395 3 -450 1 -450 -12 0 -11
17 -17 65 -21 82 -8 114 -21 137 -56 17 -25 18 -67 18 -648 0 -770 3 -752
-127 -764 -47 -4 -63 -10 -63 -21 0 -13 29 -15 195 -15 107 -1 335 -5 505 -9
206 -5 319 -4 337 3 17 6 30 22 36 43 15 46 32 167 32 222 0 38 -3 46 -18 46
-14 0 -23 -14 -35 -59 -19 -67 -63 -113 -124 -130 -50 -14 -292 -14 -348 0
-94 24 -105 65 -105 405 l0 244 23 1 c88 5 336 -5 366 -15 46 -16 72 -53 78
-110 5 -36 9 -46 24 -46 13 0 19 7 19 23 0 12 7 87 14 167 8 80 12 147 10 150
-3 2 -13 -1 -22 -8 -65 -46 -70 -47 -286 -50 -166 -3 -210 -1 -217 10 -11 17
-11 519 0 536 11 18 322 7 399 -14 61 -17 92 -56 92 -116 0 -39 9 -51 32 -43
11 4 18 40 26 133 7 70 15 137 18 150 6 20 3 22 -27 21 -19 -1 -61 -6 -94 -10z"/>
<path d="M14435 1589 c-22 -5 -249 -8 -505 -7 -421 3 -465 1 -468 -13 -2 -13
9 -17 65 -21 38 -3 82 -12 100 -21 58 -30 58 -31 58 -697 0 -544 -2 -611 -18
-661 -9 -31 -24 -62 -32 -69 -9 -7 -44 -16 -78 -19 -46 -4 -62 -10 -62 -21 0
-13 35 -15 245 -16 135 -1 370 -3 523 -5 260 -4 279 -3 292 14 15 21 31 106
41 220 6 73 6 77 -14 77 -16 0 -24 -11 -36 -54 -36 -123 -94 -149 -324 -144
-160 3 -189 11 -226 61 -20 27 -21 43 -24 313 l-3 284 172 0 c242 0 280 -15
294 -120 5 -38 11 -50 24 -50 15 0 19 19 30 143 6 78 14 154 18 170 4 18 1 27
-8 27 -7 0 -31 -12 -53 -27 l-39 -28 -216 0 -216 0 -3 269 c-2 209 1 272 10
278 19 13 335 -1 394 -18 60 -16 81 -42 91 -109 3 -25 10 -48 15 -51 22 -14
35 20 41 108 4 51 10 117 13 146 l7 52 -34 -1 c-19 -1 -52 -5 -74 -10z"/>
<path d="M6895 1581 c-3 -2 -5 -10 -5 -18 0 -9 14 -13 43 -13 61 0 110 -16
138 -46 l24 -26 0 -626 c0 -345 -4 -648 -8 -674 -12 -72 -32 -90 -108 -97 -47
-4 -64 -10 -64 -21 0 -13 36 -15 255 -16 140 -1 384 -4 542 -5 256 -4 289 -2
304 12 21 22 41 109 50 220 6 85 6 89 -14 89 -15 0 -22 -9 -27 -33 -11 -49
-41 -102 -74 -130 -46 -38 -123 -50 -291 -45 -196 6 -238 25 -259 118 -12 50
-14 1169 -2 1209 11 42 52 63 131 69 58 4 70 8 68 21 -3 14 -39 16 -351 17
-191 0 -350 -2 -352 -5z"/>
<path d="M8394 1581 c-17 -18 3 -29 62 -34 77 -6 113 -27 131 -78 9 -25 12
-189 12 -604 0 -552 -5 -683 -30 -738 -14 -31 -28 -37 -99 -46 -40 -4 -56 -11
-58 -23 -3 -15 28 -17 375 -19 686 -6 711 -6 728 11 20 20 43 134 47 230 2 61
0 75 -13 78 -11 2 -20 -13 -32 -52 -21 -66 -53 -107 -104 -132 -33 -16 -62
-19 -213 -19 -272 0 -294 14 -310 198 -12 128 -12 967 -1 1066 12 103 33 122
136 129 63 4 75 7 73 21 -3 14 -39 16 -351 16 -191 1 -350 -1 -353 -4z"/>
</g>
</svg>
