<?xml version="1.0" standalone="no"?>
<!DOCTYPE svg PUBLIC "-//W3C//DTD SVG 20010904//EN"
 "http://www.w3.org/TR/2001/REC-SVG-20010904/DTD/svg10.dtd">
<svg version="1.0" xmlns="http://www.w3.org/2000/svg"
 width="2560.000000pt" height="1016.000000pt" viewBox="0 0 2560.000000 1016.000000"
 preserveAspectRatio="xMidYMid meet">

<g transform="translate(0.000000,1016.000000) scale(0.100000,-0.100000)"
fill="#000000" stroke="none">
<path d="M9530 10091 c-103 -32 -163 -109 -164 -211 -1 -76 32 -141 92 -183
44 -30 53 -32 129 -32 74 0 85 3 124 30 118 83 125 261 14 353 -56 46 -131 62
-195 43z"/>
<path d="M13860 9945 l0 -135 105 0 105 0 0 -311 0 -312 -44 41 c-121 112
-222 154 -383 160 -94 3 -124 1 -180 -17 -233 -71 -386 -272 -450 -588 -24
-121 -25 -458 0 -590 73 -395 256 -598 567 -628 153 -15 300 38 419 150 l71
67 0 -91 0 -91 265 0 266 0 -3 138 -3 137 -92 3 -93 3 0 1099 0 1100 -275 0
-275 0 0 -135z m-4 -879 c52 -26 98 -60 145 -106 l69 -67 0 -415 0 -415 -83
-80 c-45 -43 -103 -89 -129 -101 -92 -45 -221 -46 -304 -4 -44 23 -100 80
-132 132 -59 99 -99 359 -89 570 13 262 82 431 201 492 65 33 86 38 168 34 66
-2 89 -8 154 -40z"/>
<path d="M10560 9951 l-165 -88 -3 -251 -2 -252 -120 0 -120 0 0 -140 0 -140
120 0 120 0 0 -567 c0 -612 3 -647 54 -758 65 -143 216 -212 407 -186 77 10
213 51 230 68 5 5 -10 56 -33 113 l-42 105 -97 0 c-83 0 -100 3 -119 20 -56
51 -55 33 -58 643 l-3 562 201 0 200 0 0 140 0 140 -200 0 -200 0 -2 339 -3
339 -165 -87z"/>
<path d="M17858 9952 l-168 -87 0 -252 0 -253 -120 0 -120 0 0 -140 0 -140
120 0 119 0 3 -607 c3 -596 4 -609 25 -665 63 -167 175 -243 353 -242 100 1
182 17 261 51 l57 25 -43 106 -43 107 -79 -3 c-97 -5 -144 12 -170 60 -17 31
-18 74 -21 601 l-3 567 196 0 195 0 0 140 0 140 -195 0 -195 0 -2 339 -3 340
-167 -87z"/>
<path d="M20660 9950 l-165 -88 -3 -251 -2 -251 -115 0 -115 0 0 -140 0 -140
114 0 114 0 4 -587 c5 -631 5 -640 58 -744 72 -140 217 -205 402 -180 87 12
192 42 223 65 17 12 16 19 -23 117 l-42 104 -94 0 c-80 0 -99 3 -123 21 -51
38 -52 46 -52 647 l-1 557 195 0 195 0 0 140 0 140 -195 0 -195 0 0 340 c0
187 -3 339 -7 339 -5 -1 -82 -41 -173 -89z"/>
<path d="M16235 9969 c-144 -24 -293 -102 -375 -197 -49 -56 -104 -164 -126
-247 -21 -80 -21 -277 0 -368 34 -144 118 -260 250 -342 96 -60 182 -95 382
-156 307 -94 420 -151 481 -242 93 -139 58 -381 -70 -477 -169 -128 -488 -96
-634 64 -52 57 -113 164 -142 249 l-18 52 -141 3 -142 3 0 -356 0 -355 150 0
150 0 0 91 0 91 56 -51 c143 -131 329 -184 561 -161 125 13 258 54 344 105
120 74 223 214 264 361 25 88 31 292 11 384 -55 260 -222 400 -637 530 -363
114 -471 180 -515 313 -26 78 -16 207 21 275 52 96 149 142 299 142 248 0 415
-133 474 -380 l17 -70 143 0 142 0 0 355 0 355 -150 0 -150 0 0 -90 0 -90 -62
63 c-74 75 -156 118 -270 141 -81 17 -229 19 -313 5z"/>
<path d="M4970 9795 l0 -145 125 0 125 0 0 -600 c0 -356 4 -640 11 -698 37
-345 176 -581 410 -696 111 -54 178 -73 317 -87 224 -23 448 26 607 132 161
108 262 271 318 514 20 85 21 125 24 763 l4 672 130 0 129 0 0 145 0 145 -430
0 -430 0 0 -145 0 -145 131 0 131 0 -5 -657 c-5 -722 -6 -738 -67 -871 -57
-122 -178 -218 -309 -242 -248 -46 -455 43 -546 235 -69 146 -68 138 -72 873
l-4 662 125 0 126 0 0 145 0 145 -425 0 -425 0 0 -145z"/>
<path d="M24690 9655 c0 -25 1 -25 80 -25 l80 0 0 -215 0 -215 30 0 30 0 0
215 0 215 80 0 c79 0 80 0 80 25 l0 25 -190 0 -190 0 0 -25z"/>
<path d="M25140 9441 l0 -241 30 0 30 0 2 196 3 197 66 -194 c65 -190 67 -194
96 -197 l29 -3 63 183 c35 101 67 190 72 198 5 9 9 -70 9 -182 l0 -198 30 0
30 0 0 240 0 240 -44 0 -44 0 -56 -167 c-83 -249 -84 -250 -90 -233 -3 8 -35
101 -69 205 l-64 190 -46 3 -47 3 0 -240z"/>
<path d="M8105 9371 c-91 -27 -158 -65 -230 -132 l-65 -61 0 91 0 91 -275 0
-275 0 0 -140 0 -140 105 0 105 0 0 -600 0 -599 -102 -3 -103 -3 -3 -137 -3
-138 381 0 381 0 -3 138 -3 137 -102 3 -103 3 0 510 0 510 68 68 c89 89 171
130 274 138 101 8 170 -10 220 -55 99 -90 108 -148 108 -717 l0 -455 -100 0
-100 0 0 -140 0 -140 375 0 375 0 0 140 0 140 -104 0 -105 0 -4 528 c-3 501
-4 531 -25 601 -59 208 -169 324 -343 366 -88 20 -267 19 -344 -4z"/>
<path d="M11840 9369 c-123 -31 -195 -73 -291 -169 -75 -74 -93 -99 -137 -190
-96 -196 -132 -451 -101 -705 66 -540 445 -824 960 -719 132 26 293 101 382
177 l38 32 -65 104 c-36 57 -69 108 -74 113 -5 5 -45 -14 -94 -45 -132 -83
-203 -102 -373 -102 -139 0 -141 0 -207 33 -132 65 -213 205 -235 405 l-6 57
541 0 c483 0 540 2 546 16 12 30 6 260 -9 350 -27 167 -75 289 -161 411 -84
118 -212 204 -354 237 -93 22 -266 20 -360 -5z m281 -275 c149 -44 234 -177
264 -411 l7 -53 -376 0 c-351 0 -376 1 -376 18 0 39 22 149 41 206 25 76 77
156 124 192 80 61 208 80 316 48z"/>
<path d="M19123 9375 c-99 -18 -191 -49 -285 -96 l-79 -40 62 -117 c34 -64 63
-119 65 -121 1 -1 32 11 67 27 100 48 171 63 313 69 168 7 226 -8 296 -78 62
-62 78 -117 78 -265 l0 -112 -61 25 c-103 42 -207 56 -364 50 -220 -8 -342
-53 -456 -166 -109 -109 -153 -228 -152 -411 0 -134 15 -205 63 -306 63 -130
165 -210 320 -250 79 -21 243 -23 320 -5 94 22 195 77 265 143 l65 60 0 -91 0
-91 265 0 266 0 -3 138 -3 137 -92 3 -91 3 -5 517 c-3 439 -7 527 -21 580 -53
206 -193 340 -407 392 -99 24 -310 26 -426 5z m327 -939 c41 -8 101 -24 133
-36 l57 -21 0 -158 0 -157 -53 -53 c-104 -103 -200 -149 -327 -158 -206 -15
-316 73 -328 263 -11 166 64 282 206 320 62 17 219 17 312 0z"/>
<path d="M21985 9380 c-227 -45 -406 -202 -496 -433 -48 -126 -69 -236 -76
-398 -10 -247 24 -428 115 -603 36 -72 64 -109 132 -176 148 -148 287 -203
515 -202 146 0 232 15 355 63 71 27 249 133 263 156 5 8 -109 202 -133 227 -5
5 -33 -7 -65 -29 -151 -100 -253 -129 -428 -124 -103 4 -118 7 -179 37 -79 39
-136 99 -177 186 -28 59 -56 165 -63 236 l-3 35 542 3 542 2 7 57 c9 75 -2
270 -21 358 -69 324 -248 535 -506 599 -69 17 -251 20 -324 6z m282 -299 c64
-28 136 -102 168 -174 25 -54 49 -146 59 -229 l6 -48 -376 0 -377 0 7 60 c20
179 96 328 190 377 94 49 228 55 323 14z"/>
<path d="M23506 9365 c-173 -44 -307 -174 -351 -340 -19 -76 -19 -214 0 -290
50 -189 171 -282 518 -396 197 -65 248 -90 295 -143 41 -47 58 -128 42 -197
-28 -116 -127 -168 -282 -148 -130 16 -233 93 -316 236 l-37 63 -117 0 -118 0
0 -275 0 -275 135 0 135 0 0 65 0 65 62 -50 c77 -62 148 -90 257 -100 255 -23
468 73 564 257 48 92 58 138 58 253 -1 117 -13 174 -54 253 -65 124 -193 205
-474 301 -193 65 -248 92 -296 145 -40 45 -52 86 -45 166 9 108 79 160 218
160 76 0 93 -4 152 -33 80 -39 132 -95 185 -198 l38 -74 118 0 117 0 0 275 0
275 -135 0 -135 0 0 -50 0 -50 -57 39 c-91 61 -139 74 -288 77 -89 2 -148 -1
-189 -11z"/>
<path d="M9230 9220 l0 -140 110 0 110 0 0 -600 0 -599 -107 -3 -108 -3 -3
-137 -3 -138 391 0 390 0 0 140 0 140 -110 0 -110 0 0 740 0 740 -280 0 -280
0 0 -140z"/>
<path d="M2641 8430 c-691 -48 -1323 -331 -1788 -802 -193 -195 -321 -366
-452 -602 -190 -344 -317 -762 -370 -1221 -21 -181 -33 -483 -27 -670 28 -879
307 -1560 852 -2086 422 -406 913 -624 1579 -701 169 -20 647 -16 820 6 447
57 796 180 1132 398 l112 73 -249 390 c-137 215 -251 394 -253 400 -2 5 -35
-13 -73 -41 -315 -230 -705 -349 -1085 -330 -402 20 -713 153 -955 409 -290
306 -410 685 -444 1407 -50 1046 95 1694 460 2060 315 316 802 445 1300 344
176 -36 412 -133 585 -242 70 -44 81 -48 89 -34 5 10 115 203 243 431 129 227
233 415 231 416 -18 16 -130 81 -195 114 -410 206 -1002 316 -1512 281z"/>
<path d="M14645 6889 c-450 -24 -834 -175 -1104 -435 -111 -106 -191 -213
-256 -340 -187 -366 -186 -855 3 -1230 96 -190 257 -332 527 -464 173 -85 240
-103 625 -175 392 -73 487 -98 616 -160 116 -56 193 -125 233 -208 136 -280
-35 -592 -367 -672 -104 -26 -322 -17 -496 19 -295 62 -700 224 -1022 410
l-61 36 -131 -313 c-72 -171 -151 -361 -176 -420 l-46 -109 153 -73 c764 -366
1452 -475 2100 -335 300 65 608 215 801 389 282 256 425 548 456 931 22 267
-34 528 -154 727 -116 192 -273 336 -471 433 -159 78 -258 109 -717 229 -500
130 -590 164 -694 262 -73 70 -98 130 -97 239 0 120 27 186 109 268 105 105
242 152 444 152 274 0 559 -76 923 -248 64 -30 119 -53 121 -51 14 15 296 773
289 779 -14 13 -294 136 -393 173 -396 147 -796 208 -1215 186z"/>
<path d="M22690 6890 c-577 -34 -1042 -267 -1294 -650 -238 -360 -280 -862
-107 -1275 105 -251 262 -400 584 -555 158 -77 239 -98 607 -165 359 -65 492
-100 617 -161 167 -80 253 -190 273 -347 31 -248 -135 -464 -410 -533 -94 -24
-332 -14 -496 20 -294 62 -700 224 -1009 404 l-70 41 -11 -22 c-7 -12 -80
-186 -164 -387 -84 -201 -159 -380 -167 -398 l-14 -33 163 -78 c576 -277 1114
-406 1618 -388 353 13 639 78 905 207 163 78 289 165 410 282 218 209 352 465
400 763 19 117 19 358 0 467 -39 227 -131 410 -299 596 -108 118 -310 238
-526 312 -52 18 -274 79 -492 136 -219 57 -435 118 -480 135 -162 63 -251 131
-297 229 -22 47 -26 69 -26 145 1 118 31 189 116 270 118 112 248 150 489 141
278 -10 484 -66 848 -233 78 -36 144 -64 146 -62 2 3 210 545 293 765 4 12
-157 91 -323 158 -308 123 -623 196 -909 211 -60 3 -141 7 -180 9 -38 2 -126
0 -195 -4z"/>
<path d="M6380 6849 c-425 -48 -761 -213 -1051 -517 -318 -333 -486 -708 -555
-1242 -22 -170 -30 -621 -15 -787 113 -1198 878 -1933 2012 -1933 564 0 1054
167 1520 518 49 36 89 70 89 75 0 14 -422 657 -431 657 -5 0 -37 -22 -72 -49
-337 -264 -756 -399 -1120 -362 -447 45 -710 313 -781 794 -9 58 -16 143 -16
191 l0 86 1240 0 1240 0 0 138 c0 206 -18 557 -36 711 -88 771 -398 1295 -914
1545 -175 86 -413 152 -632 175 -112 13 -368 12 -478 0z m435 -824 c164 -42
282 -140 360 -298 68 -140 88 -241 99 -499 l6 -128 -653 0 -652 0 7 132 c22
436 201 721 496 792 79 20 263 20 337 1z"/>
<path d="M11115 6835 c-128 -20 -311 -69 -413 -111 -141 -58 -329 -169 -519
-305 -44 -33 -84 -59 -87 -59 -3 0 -6 104 -6 230 l0 230 -505 0 -505 0 0
-2165 0 -2165 560 0 560 0 0 1514 0 1513 43 39 c213 196 502 338 712 351 171
10 280 -38 334 -150 69 -139 65 -38 68 -1734 l4 -1533 550 0 550 0 -4 1728 -3
1727 -22 99 c-30 136 -47 186 -100 291 -39 76 -63 107 -151 195 -151 150 -317
240 -538 291 -115 27 -396 34 -528 14z"/>
<path d="M17110 5233 c0 -931 4 -1648 10 -1733 22 -328 92 -525 243 -687 233
-250 619 -383 997 -344 368 38 637 147 1010 411 l115 81 5 -233 5 -233 498 -3
497 -2 0 2165 0 2165 -560 0 -560 0 -1 -1517 0 -1518 -65 -54 c-152 -127 -328
-229 -487 -283 -118 -40 -280 -50 -371 -24 -100 29 -165 108 -203 248 -16 58
-18 187 -20 1606 l-3 1542 -555 0 -555 0 0 -1587z"/>
<path d="M17240 970 l0 -860 413 0 c233 0 440 5 477 10 235 38 390 226 390
473 0 183 -80 310 -246 389 l-85 41 59 28 c71 35 134 100 170 177 24 51 27 68
27 172 0 106 -2 119 -29 174 -37 75 -120 158 -198 197 -102 52 -169 58 -595
59 l-383 0 0 -860z m753 546 c78 -38 118 -156 87 -251 -17 -52 -65 -103 -108
-115 -20 -5 -117 -10 -214 -10 l-178 0 0 201 0 201 188 -4 c158 -3 193 -6 225
-22z m-21 -667 c68 -14 128 -73 148 -143 18 -65 8 -155 -23 -209 -57 -96 -87
-106 -329 -107 l-188 0 0 235 0 235 170 0 c93 0 193 -5 222 -11z"/>
<path d="M21184 1386 c-99 -20 -183 -67 -255 -144 -125 -133 -171 -269 -171
-507 1 -164 20 -255 79 -367 70 -134 179 -224 328 -271 93 -29 278 -30 375 -3
69 20 217 93 262 129 l27 22 -60 95 c-34 52 -63 97 -64 99 -2 1 -19 -8 -37
-22 -18 -14 -65 -41 -103 -59 -59 -27 -84 -33 -162 -36 -85 -4 -98 -2 -148 23
-86 42 -129 114 -142 237 l-6 58 368 0 368 0 -6 153 c-8 226 -54 361 -159 469
-107 110 -309 161 -494 124z m213 -245 c60 -28 95 -91 101 -187 l5 -74 -192 0
-191 0 0 43 c0 99 43 182 112 216 53 26 110 27 165 2z"/>
<path d="M22425 1386 c-81 -19 -195 -61 -279 -103 -118 -58 -114 -44 -44 -164
33 -57 65 -109 72 -116 8 -9 23 -4 65 22 30 19 88 49 130 67 67 28 88 32 168
32 86 1 94 -1 118 -24 25 -26 45 -102 45 -177 l0 -33 -96 0 c-286 0 -486 -88
-555 -245 -31 -71 -44 -187 -30 -271 35 -203 178 -308 421 -309 130 0 197 19
277 79 l58 44 3 -39 3 -39 113 0 113 0 8 487 c5 352 4 502 -5 538 -26 116 -98
194 -217 236 -76 27 -279 35 -368 15z m265 -860 l0 -134 -34 -30 c-132 -116
-288 -56 -289 111 -1 130 71 185 246 186 l77 1 0 -134z"/>
<path d="M20477 1376 c-43 -16 -118 -75 -150 -118 l-22 -30 -5 59 -5 58 -147
3 -148 3 0 -621 0 -620 165 0 165 0 0 449 0 449 46 41 c26 23 63 46 84 52 37
11 122 9 151 -5 14 -6 21 13 48 118 17 69 31 132 31 140 0 34 -139 48 -213 22z"/>
<path d="M18732 838 c3 -511 3 -513 26 -563 32 -70 82 -118 166 -157 70 -32
73 -33 206 -33 148 1 195 13 286 76 l44 30 0 -41 0 -40 130 0 130 0 0 620 0
621 -157 -3 -158 -3 -3 -457 -2 -457 -32 -32 c-96 -95 -253 -96 -296 -1 -15
33 -17 93 -20 495 l-3 457 -160 0 -160 0 3 -512z"/>
<path d="M23272 843 c3 -454 5 -513 21 -552 38 -96 109 -156 230 -193 58 -17
86 -20 175 -16 119 6 190 27 261 78 22 17 43 30 46 30 3 0 5 -18 5 -40 l0 -40
125 0 125 0 0 620 0 620 -155 0 -155 0 0 -452 0 -451 -24 -31 c-37 -48 -119
-89 -182 -90 -64 0 -99 21 -129 80 -19 37 -20 63 -23 492 l-4 452 -160 0 -159
0 3 -507z"/>
<path d="M565 1250 c-233 -31 -430 -218 -480 -455 -27 -130 -11 -249 52 -375
75 -148 236 -270 398 -300 44 -8 2147 -10 7780 -8 l7720 3 67 26 c93 36 157
80 227 155 66 71 122 174 141 266 20 91 9 239 -25 323 -69 175 -201 295 -385
353 -52 16 -513 17 -7745 18 -4230 1 -7717 -2 -7750 -6z"/>
</g>
</svg>
