<?xml version="1.0" standalone="no"?>
<!DOCTYPE svg PUBLIC "-//W3C//DTD SVG 20010904//EN"
 "http://www.w3.org/TR/2001/REC-SVG-20010904/DTD/svg10.dtd">
<svg version="1.0" xmlns="http://www.w3.org/2000/svg"
 width="821.000000pt" height="271.000000pt" viewBox="0 0 821.000000 271.000000"
 preserveAspectRatio="xMidYMid meet">

<g transform="translate(0.000000,271.000000) scale(0.100000,-0.100000)"
fill="#000000" stroke="none">
<path d="M3702 2691 c-60 -14 -77 -32 -36 -40 10 -2 22 -8 26 -15 12 -18 10
-484 -2 -507 -6 -10 -20 -19 -30 -19 -11 0 -20 -7 -20 -15 0 -12 17 -15 90
-15 66 0 90 3 90 13 0 7 -10 17 -22 22 -22 10 -23 16 -26 142 l-3 132 27 18
c40 26 102 23 125 -6 16 -20 19 -41 19 -152 l0 -129 -25 -6 c-14 -3 -25 -12
-25 -20 0 -11 20 -14 90 -14 73 0 90 3 90 15 0 8 -9 15 -20 15 -32 0 -40 32
-40 160 0 141 -11 173 -67 197 -44 18 -88 11 -137 -22 l-35 -24 -3 142 -3 142
-63 -14z"/>
<path d="M2633 2662 c-6 -4 -57 -123 -113 -264 -101 -258 -118 -288 -163 -288
-10 0 -17 -5 -15 -12 7 -20 188 -24 188 -4 0 7 -11 17 -25 20 -37 9 -38 23
-12 101 l24 70 94 3 94 3 28 -78 c26 -73 27 -79 10 -90 -9 -7 -23 -13 -30 -13
-7 0 -13 -7 -13 -15 0 -13 16 -15 107 -13 67 2 108 7 110 14 2 6 -10 14 -26
17 -17 4 -37 17 -45 29 -8 13 -54 133 -102 268 -48 135 -90 248 -93 252 -3 4
-11 4 -18 0z m28 -239 c16 -48 29 -88 29 -90 0 -2 -34 -3 -76 -3 -89 0 -86
-10 -33 130 36 95 35 95 80 -37z"/>
<path d="M30 2641 c0 -5 14 -12 30 -16 17 -4 35 -15 40 -25 6 -10 10 -91 10
-180 0 -89 5 -182 12 -207 31 -125 193 -181 321 -111 32 18 49 37 72 83 29 58
30 65 33 220 1 88 5 170 7 182 3 14 18 26 40 34 19 7 35 17 35 21 0 4 -47 8
-105 8 -102 0 -136 -12 -75 -25 56 -12 62 -35 58 -217 -3 -152 -5 -166 -28
-208 -57 -102 -190 -107 -261 -10 -27 36 -39 116 -39 256 0 144 7 170 49 179
64 14 27 25 -84 25 -63 0 -115 -4 -115 -9z"/>
<path d="M640 2641 c0 -6 15 -14 33 -19 31 -8 32 -10 35 -68 4 -66 -15 -347
-27 -391 -4 -18 -18 -33 -39 -43 -60 -28 -40 -40 68 -40 82 0 100 3 100 15 0
8 -9 15 -20 15 -11 0 -29 9 -41 21 -20 20 -21 27 -14 192 4 94 11 182 14 195
5 19 26 -23 101 -202 52 -124 99 -226 105 -226 5 0 57 107 115 237 l105 238 3
-215 c2 -193 1 -216 -15 -227 -9 -7 -25 -13 -35 -13 -10 0 -18 -7 -18 -15 0
-12 19 -15 115 -15 96 0 115 3 115 15 0 8 -9 15 -19 15 -10 0 -28 8 -40 18
-19 16 -21 31 -27 239 -8 242 -7 246 47 258 57 13 29 26 -48 23 l-77 -3 -96
-207 c-52 -115 -98 -208 -101 -208 -3 0 -48 93 -100 208 l-95 207 -72 3 c-44
2 -72 -1 -72 -7z"/>
<path d="M5137 2562 c-18 -19 -27 -39 -27 -60 0 -24 -4 -32 -18 -32 -19 0 -42
-18 -42 -32 0 -4 14 -8 30 -8 l30 0 0 -145 c0 -162 7 -189 55 -205 28 -9 40
-7 79 12 25 12 46 28 46 36 0 13 -12 12 -57 -5 -6 -3 -21 5 -32 16 -19 19 -21
33 -21 156 l0 135 50 0 c43 0 50 3 50 20 0 17 -7 20 -50 20 l-50 0 0 60 c0 33
-4 60 -8 60 -5 0 -20 -13 -35 -28z"/>
<path d="M1488 2461 c-98 -38 -135 -86 -86 -112 18 -10 24 -8 35 7 7 10 13 23
13 29 0 17 44 55 62 55 34 0 61 -35 62 -79 l1 -43 -85 -34 c-47 -19 -91 -42
-97 -51 -23 -30 -16 -97 12 -126 45 -44 77 -44 153 4 21 12 24 12 33 -3 20
-36 46 -40 89 -16 40 23 49 46 16 40 -39 -7 -46 15 -46 140 0 137 -12 171 -65
194 -42 17 -39 17 -97 -5z m92 -239 c0 -64 -2 -70 -25 -80 -40 -18 -72 -14
-89 10 -21 30 -20 61 2 81 13 12 97 56 110 57 1 0 2 -31 2 -68z"/>
<path d="M1844 2470 c-50 -16 -79 -55 -79 -107 0 -51 24 -77 113 -125 73 -39
83 -87 27 -124 -24 -16 -29 -16 -60 -1 -21 10 -42 32 -55 57 -29 56 -44 52
-38 -12 6 -59 19 -72 79 -82 83 -13 162 32 175 100 9 49 -20 92 -86 127 -30
15 -66 39 -80 52 -20 21 -23 29 -14 52 14 40 56 53 92 27 15 -12 33 -33 40
-48 19 -38 35 -22 27 28 -4 22 -10 44 -14 48 -12 13 -94 18 -127 8z"/>
<path d="M2144 2466 c-69 -31 -94 -107 -53 -160 12 -15 46 -41 76 -58 88 -49
104 -92 50 -132 l-28 -21 -37 20 c-21 11 -46 36 -57 57 -11 21 -23 38 -27 38
-5 0 -8 -20 -8 -45 0 -56 21 -79 79 -89 93 -15 172 37 173 113 1 57 -21 84
-97 120 -74 35 -96 65 -77 106 24 53 94 38 128 -26 22 -43 38 -25 25 30 -5 23
-11 45 -14 47 -13 13 -105 13 -133 0z"/>
<path d="M3030 2464 c-19 -7 -45 -13 -57 -13 -31 -1 -29 -27 2 -35 l25 -6 0
-138 c0 -142 -5 -162 -42 -162 -10 0 -18 -7 -18 -15 0 -12 17 -15 90 -15 73 0
90 3 90 15 0 8 -7 15 -15 15 -28 0 -36 38 -33 157 l3 118 45 23 c48 24 75 22
103 -10 14 -17 17 -41 17 -149 l0 -129 -30 -6 c-16 -4 -30 -13 -30 -20 0 -11
21 -14 95 -14 78 0 95 3 95 15 0 8 -9 15 -20 15 -31 0 -41 41 -38 164 l3 111
47 23 c42 21 50 22 75 10 37 -18 52 -64 52 -168 1 -109 -4 -126 -41 -139 -51
-18 -21 -31 73 -31 72 0 89 3 89 15 0 8 -9 15 -20 15 -31 0 -40 38 -40 175 0
124 0 125 -29 157 -41 46 -97 46 -163 0 l-48 -33 -29 33 c-41 46 -97 46 -163
0 l-47 -32 -3 33 -3 34 -35 -13z"/>
<path d="M4224 2462 c-169 -79 -163 -336 9 -383 50 -13 110 7 152 51 38 40 26
47 -30 20 -71 -34 -132 -11 -166 63 -36 80 -33 84 79 91 133 9 147 14 146 54
-5 90 -103 144 -190 104z m95 -48 c12 -15 21 -37 21 -50 0 -23 -2 -24 -81 -24
l-81 0 7 28 c17 71 94 97 134 46z"/>
<path d="M4550 2464 c-19 -7 -45 -13 -57 -13 -13 -1 -23 -7 -23 -14 0 -7 10
-17 23 -22 21 -10 22 -16 25 -144 3 -139 -3 -161 -39 -161 -11 0 -19 -7 -19
-15 0 -12 18 -15 100 -15 82 0 100 3 100 15 0 9 -9 15 -23 15 -41 0 -47 17
-47 131 0 101 2 109 26 138 26 31 57 40 69 21 10 -17 44 -11 55 9 15 29 13 39
-15 57 -33 22 -75 5 -107 -42 l-23 -34 -5 44 -5 43 -35 -13z"/>
<path d="M4855 2466 c-48 -21 -70 -53 -70 -101 0 -53 23 -81 101 -120 81 -41
96 -88 42 -128 -27 -20 -29 -20 -63 -4 -21 10 -42 31 -55 57 -29 56 -44 52
-38 -12 6 -59 19 -72 79 -82 83 -13 162 32 175 100 10 52 -20 92 -100 134 -37
20 -72 44 -78 54 -15 26 -1 65 27 78 34 15 70 -2 97 -48 27 -46 43 -32 31 27
-7 34 -14 45 -33 50 -40 11 -83 9 -115 -5z"/>
<path d="M5 1640 c-4 -7 1363 -10 4094 -10 2727 0 4101 3 4101 10 0 7 -1371
10 -4094 10 -2719 0 -4097 -3 -4101 -10z"/>
<path d="M3248 1238 c-42 -11 -49 -23 -18 -31 19 -5 20 -14 20 -185 0 -175 -1
-180 -22 -195 -22 -15 -19 -16 52 -16 72 0 74 0 48 15 l-28 15 0 204 c0 113
-3 205 -7 204 -5 -1 -25 -6 -45 -11z"/>
<path d="M3398 1238 c-40 -10 -51 -28 -19 -28 27 0 31 -25 31 -190 0 -165 -3
-184 -33 -198 -17 -8 -6 -11 53 -11 59 0 70 3 53 11 -12 6 -24 20 -27 32 -3
11 -6 105 -6 209 0 103 -3 187 -7 186 -5 -1 -25 -6 -45 -11z"/>
<path d="M4892 1230 c-34 -21 -71 -87 -72 -126 0 -13 -9 -25 -22 -29 l-23 -8
23 -4 c21 -4 22 -8 22 -119 0 -93 -3 -114 -14 -114 -8 0 -18 -4 -21 -10 -4 -6
22 -10 72 -9 77 1 77 1 45 15 l-33 14 3 108 3 107 30 3 c49 6 54 22 7 22 -41
0 -42 1 -42 34 0 83 38 123 87 91 31 -21 55 -6 37 23 -16 25 -64 26 -102 2z"/>
<path d="M5752 1230 c-34 -21 -71 -87 -72 -126 0 -13 -9 -25 -22 -29 l-23 -8
23 -4 c21 -4 22 -8 22 -112 0 -101 -2 -110 -22 -124 -22 -15 -19 -16 57 -16
78 0 79 0 47 14 l-33 14 3 108 3 108 33 3 c44 4 41 22 -4 22 l-37 0 6 56 c8
82 35 103 86 68 29 -20 52 -4 35 24 -16 25 -64 26 -102 2z"/>
<path d="M2620 1193 c-114 -58 -150 -187 -85 -300 36 -60 83 -85 169 -91 39
-2 87 0 106 5 29 8 38 17 52 56 21 57 8 70 -22 22 -84 -136 -270 -47 -270 129
0 105 57 175 147 183 57 5 109 -22 119 -62 3 -14 12 -25 19 -25 15 0 9 77 -6
94 -5 5 -46 11 -91 14 -76 3 -88 1 -138 -25z"/>
<path d="M100 1201 c0 -5 10 -11 23 -13 22 -3 22 -5 19 -143 -3 -161 -9 -196
-40 -210 -39 -17 -24 -25 48 -25 66 0 98 15 48 22 -22 3 -23 7 -26 129 -4 193
2 194 78 12 36 -85 70 -155 75 -155 6 0 42 70 80 155 39 86 73 159 78 163 8 9
10 -267 1 -290 -3 -9 -15 -16 -25 -16 -10 0 -19 -4 -19 -10 0 -6 34 -10 81
-10 51 0 78 4 74 10 -3 6 -13 10 -20 10 -29 0 -36 39 -33 197 3 155 3 158 26
161 43 6 21 22 -31 22 l-54 0 -68 -150 c-38 -82 -71 -147 -74 -144 -3 2 -35
69 -71 147 l-66 142 -52 3 c-29 2 -52 -1 -52 -7z"/>
<path d="M1623 1203 c-18 -7 -16 -52 3 -60 23 -9 51 23 38 44 -12 19 -23 24
-41 16z"/>
<path d="M5100 1200 c0 -5 9 -10 20 -10 31 0 40 -39 40 -180 0 -133 -9 -180
-34 -180 -8 0 -18 -4 -21 -10 -4 -6 23 -10 74 -10 45 0 81 4 81 9 0 5 -10 11
-22 13 -23 3 -23 4 -23 178 0 174 0 175 23 178 12 2 22 8 22 13 0 5 -36 9 -80
9 -47 0 -80 -4 -80 -10z"/>
<path d="M7359 1194 c-16 -20 0 -49 27 -49 35 0 28 64 -7 65 -4 0 -12 -7 -20
-16z"/>
<path d="M7193 1148 c-13 -13 -23 -34 -23 -46 0 -15 -6 -22 -20 -22 -11 0 -20
-4 -20 -9 0 -5 9 -11 20 -14 18 -5 20 -14 20 -115 0 -93 3 -111 18 -125 24
-22 45 -21 85 0 l32 18 -35 3 c-19 2 -38 9 -42 15 -4 7 -8 56 -8 110 l0 97 35
0 c19 0 35 5 35 10 0 6 -16 10 -34 10 -34 0 -35 1 -38 46 l-3 46 -22 -24z"/>
<path d="M703 1069 c-50 -24 -67 -43 -59 -64 9 -23 25 -18 44 15 9 17 25 33
35 36 25 8 57 -23 57 -56 0 -23 -7 -30 -47 -45 -79 -29 -93 -41 -93 -80 0 -40
29 -75 60 -75 12 0 35 7 51 16 28 14 32 14 50 -2 16 -14 23 -15 49 -4 16 7 30
19 30 27 0 8 -5 11 -10 8 -6 -4 -17 -1 -25 5 -11 9 -15 36 -15 105 0 89 -1 95
-26 114 -33 26 -48 26 -101 0z m77 -168 c0 -50 -9 -61 -50 -61 -22 0 -44 35
-36 56 5 14 64 54 79 54 4 0 7 -22 7 -49z"/>
<path d="M950 1076 c-46 -13 -48 -15 -25 -32 34 -25 34 -214 0 -214 -8 0 -17
-4 -20 -10 -4 -6 21 -10 67 -9 58 0 69 2 51 11 -27 13 -33 35 -33 125 0 70 1
73 30 88 72 37 100 7 100 -111 0 -73 -2 -83 -22 -97 -22 -15 -20 -16 47 -16
66 -1 68 0 47 15 -20 14 -22 24 -22 104 0 103 -11 134 -53 151 -26 11 -35 10
-71 -9 -50 -27 -54 -27 -58 -4 -3 16 -8 17 -38 8z"/>
<path d="M1288 1075 c-47 -13 -55 -21 -29 -30 19 -6 21 -14 21 -104 0 -91 -2
-100 -22 -114 -22 -15 -19 -16 47 -16 66 0 69 1 48 16 -21 14 -23 24 -23 103
0 95 5 106 56 116 49 9 66 -13 71 -93 7 -88 0 -117 -29 -131 -19 -9 -11 -11
47 -11 58 0 67 2 54 12 -13 10 -17 36 -21 116 -4 98 -5 105 -31 127 -34 29
-62 30 -102 4 -37 -24 -43 -25 -47 -2 -3 16 -8 17 -40 7z"/>
<path d="M1625 1076 c-52 -12 -53 -14 -27 -32 20 -14 22 -24 22 -109 0 -93 -1
-95 -27 -109 -27 -15 -25 -15 47 -15 73 -1 74 0 53 17 -21 16 -23 27 -25 137
l-3 120 -40 -9z"/>
<path d="M1795 1078 c-16 -5 -36 -12 -44 -14 -11 -4 -9 -8 7 -20 20 -14 22
-24 22 -109 0 -93 -1 -95 -27 -109 -27 -15 -25 -15 47 -15 71 0 74 1 53 16
-21 14 -23 23 -23 104 0 79 2 89 22 103 29 20 62 20 82 0 12 -12 16 -37 16
-108 0 -86 -2 -94 -22 -104 -19 -9 -11 -11 46 -11 l70 -1 -22 20 c-20 19 -22
31 -22 116 0 87 -2 97 -25 119 -31 31 -63 32 -108 1 l-36 -25 -3 23 c-3 20 -6
22 -33 14z"/>
<path d="M2142 1075 c-45 -20 -67 -73 -52 -121 6 -19 19 -38 28 -44 15 -9 15
-12 -5 -29 -28 -23 -29 -42 -4 -65 18 -16 18 -18 -10 -46 -36 -35 -37 -64 -3
-95 22 -20 37 -25 81 -25 91 0 153 49 153 120 0 54 -23 70 -101 70 -36 0 -70
5 -76 11 -20 20 -3 39 34 39 71 0 123 55 110 118 -4 22 -1 30 16 37 40 19 31
34 -20 33 -26 -1 -64 2 -83 5 -23 5 -46 2 -68 -8z m84 -26 c26 -29 26 -105 0
-125 -27 -19 -42 -18 -66 6 -39 39 -15 140 33 140 8 0 22 -9 33 -21z m42 -265
c50 -35 5 -104 -67 -104 -42 0 -81 29 -81 60 0 48 99 78 148 44z"/>
<path d="M2990 1072 c-134 -67 -92 -272 56 -272 140 0 187 213 60 271 -51 23
-72 23 -116 1z m75 -12 c54 -20 76 -160 34 -214 -54 -68 -129 -2 -129 114 0
44 5 56 29 81 33 33 31 32 66 19z"/>
<path d="M3610 1073 c-98 -50 -110 -211 -20 -258 50 -26 114 -13 150 30 20 24
6 28 -33 9 -30 -15 -40 -15 -67 -4 -32 13 -60 54 -60 88 0 16 10 20 53 26 28
3 67 6 85 6 29 0 32 3 32 29 0 17 -10 41 -22 55 -31 35 -74 41 -118 19z m72
-30 c10 -9 18 -24 18 -35 0 -15 -8 -18 -60 -18 -33 0 -60 4 -60 9 0 4 9 20 21
35 23 30 54 33 81 9z"/>
<path d="M3855 1075 c-43 -23 -55 -43 -55 -92 0 -31 6 -49 22 -65 l21 -21 -21
-18 c-28 -22 -28 -44 0 -63 l21 -15 -31 -30 c-65 -60 -22 -121 85 -121 103 0
184 98 133 163 -20 25 -27 27 -90 27 -44 0 -71 5 -79 13 -15 19 6 37 43 37 42
0 94 34 102 65 3 14 4 39 2 55 -3 19 0 30 7 30 7 0 20 9 30 20 17 19 17 20
-36 18 -30 -1 -70 2 -89 6 -24 5 -44 2 -65 -9z m84 -31 c42 -53 13 -144 -41
-131 -47 12 -65 100 -28 137 27 27 44 25 69 -6z m39 -260 c49 -34 10 -104 -59
-104 -39 0 -89 31 -89 56 0 8 11 26 25 39 29 29 88 34 123 9z"/>
<path d="M4154 1071 c-67 -41 -94 -107 -74 -180 22 -81 105 -114 176 -70 47
29 47 55 0 33 -57 -28 -114 7 -130 78 l-6 26 86 7 c59 5 87 12 91 21 9 24 -18
74 -48 89 -37 20 -58 19 -95 -4z m82 -36 c22 -34 11 -45 -52 -45 -58 0 -63 6
-38 45 22 34 68 34 90 0z"/>
<path d="M4551 1073 c-70 -36 -99 -121 -68 -196 29 -68 119 -97 188 -62 87 45
94 193 12 250 -35 25 -94 28 -132 8z m80 -13 c5 0 18 -15 29 -32 28 -47 28
-145 -1 -182 -54 -68 -129 -2 -129 114 0 44 4 56 30 82 19 18 36 28 46 24 9
-3 20 -6 25 -6z"/>
<path d="M5370 1080 c-8 -5 -25 -10 -37 -10 -28 0 -29 -4 -3 -30 17 -17 20
-33 20 -102 0 -88 -3 -98 -35 -116 -16 -9 -6 -11 55 -11 61 0 71 2 53 11 -21
10 -23 17 -23 104 0 85 2 94 22 108 30 21 61 20 81 -2 13 -14 17 -39 17 -104
0 -77 -2 -87 -22 -101 -22 -15 -19 -16 47 -16 66 0 69 1 48 16 -21 14 -23 23
-23 105 0 106 -15 143 -60 153 -22 5 -40 1 -66 -14 -43 -26 -44 -26 -44 -1 0
22 -7 25 -30 10z"/>
<path d="M5902 1073 c-131 -64 -91 -273 52 -273 82 0 136 58 136 145 0 62 -25
106 -73 128 -44 21 -73 21 -115 0z m72 -13 c34 -13 59 -64 60 -127 1 -90 -58
-141 -110 -92 -53 50 -58 164 -9 206 30 27 26 26 59 13z"/>
<path d="M6180 1076 c-46 -12 -47 -14 -25 -30 14 -10 20 -30 23 -80 6 -89 -3
-131 -31 -144 -18 -9 -6 -11 58 -10 68 0 76 2 53 11 -32 13 -43 51 -36 128 7
65 29 89 74 82 38 -6 56 16 34 42 -18 22 -35 18 -74 -15 l-35 -31 -3 29 c-3
27 -4 28 -38 18z"/>
<path d="M6408 1075 c-47 -13 -55 -21 -29 -30 19 -6 21 -14 21 -105 0 -98 0
-100 -27 -114 -27 -15 -25 -15 47 -15 71 0 74 1 53 16 -21 14 -23 23 -23 104
0 88 0 89 30 104 70 36 90 12 90 -111 0 -75 -3 -94 -14 -94 -8 0 -18 -4 -21
-10 -4 -6 19 -10 62 -9 65 0 67 1 46 16 -21 14 -23 23 -23 104 l0 89 35 17
c66 32 95 -4 95 -116 0 -64 -8 -87 -33 -99 -17 -8 -6 -11 53 -11 59 0 70 3 53
11 -28 13 -33 35 -33 140 0 82 -1 88 -27 108 -32 25 -68 22 -113 -10 l-29 -20
-25 25 c-30 30 -50 31 -99 5 -45 -24 -45 -24 -49 -2 -3 16 -8 17 -40 7z"/>
<path d="M6933 1069 c-55 -27 -69 -44 -53 -63 13 -17 40 -11 40 9 0 21 37 47
58 40 20 -6 46 -60 37 -76 -3 -4 -31 -17 -63 -29 -31 -12 -62 -26 -69 -32 -21
-17 -16 -72 10 -96 28 -26 59 -28 93 -6 23 16 26 15 44 -1 17 -15 24 -16 50
-5 29 12 45 45 16 34 -24 -9 -36 30 -36 120 0 79 -2 86 -26 105 -33 26 -48 26
-101 0z m87 -164 c0 -34 -5 -47 -19 -55 -31 -16 -59 -12 -71 11 -15 28 -7 45
32 69 49 30 58 26 58 -25z"/>
<path d="M7363 1076 c-47 -11 -54 -21 -23 -31 18 -6 20 -15 20 -104 0 -91 -2
-100 -22 -114 -22 -15 -19 -16 52 -16 69 0 73 1 50 14 -24 13 -25 18 -30 137
l-5 123 -42 -9z"/>
<path d="M7560 1072 c-38 -20 -80 -89 -80 -132 1 -47 35 -105 73 -123 99 -47
198 16 199 127 2 108 -101 177 -192 128z m99 -30 c19 -18 30 -43 35 -74 18
-120 -55 -192 -118 -118 -46 55 -46 150 -1 196 31 31 50 30 84 -4z"/>
<path d="M7860 1080 c-8 -5 -25 -10 -37 -10 -28 0 -29 -4 -3 -30 17 -17 20
-33 20 -102 0 -88 -3 -98 -35 -116 -16 -9 -6 -11 55 -11 61 0 71 2 53 11 -21
10 -23 17 -23 104 0 85 2 94 22 108 30 21 61 20 81 -2 13 -14 17 -39 17 -104
0 -77 -2 -87 -22 -101 -22 -15 -19 -16 47 -16 66 0 69 1 48 16 -21 14 -23 23
-23 105 0 106 -15 143 -60 153 -22 5 -40 1 -66 -14 -43 -26 -44 -26 -44 -1 0
22 -7 25 -30 10z"/>
<path d="M205 561 c-56 -24 -75 -87 -45 -144 l20 -37 -40 -36 c-36 -33 -40
-41 -40 -83 1 -68 44 -111 113 -111 44 0 70 12 109 48 l27 25 41 -36 c36 -33
90 -51 90 -29 0 4 -20 32 -45 62 -25 30 -45 58 -45 61 0 17 67 105 88 115 41
20 36 24 -36 24 -69 0 -95 -12 -51 -23 23 -6 20 -31 -8 -75 l-14 -23 -50 41
c-27 23 -49 43 -49 45 0 2 16 19 35 38 41 41 45 75 13 112 -25 28 -79 41 -113
26z m65 -31 c27 -27 25 -73 -3 -106 l-23 -27 -27 33 c-15 17 -27 42 -27 56 0
24 31 64 50 64 6 0 19 -9 30 -20z m5 -224 c54 -48 58 -55 46 -70 -19 -23 -65
-46 -91 -46 -32 0 -80 53 -80 88 0 31 33 82 53 82 7 0 39 -24 72 -54z"/>
<path d="M818 561 c-96 -31 -152 -107 -152 -206 0 -127 87 -206 223 -204 100
2 113 8 133 62 21 57 8 70 -22 22 -51 -83 -149 -87 -221 -8 -73 79 -61 235 22
296 62 45 162 28 194 -33 9 -17 20 -30 25 -30 12 0 2 80 -11 94 -11 13 -157
18 -191 7z"/>
<path d="M3424 561 c-35 -15 -64 -60 -64 -101 0 -45 28 -83 80 -110 69 -35
100 -68 100 -106 0 -95 -121 -98 -160 -4 -7 16 -17 30 -23 30 -12 0 -1 -90 13
-104 6 -6 38 -12 73 -14 53 -3 67 0 97 20 22 15 40 38 48 62 18 56 -6 101 -78
143 -76 45 -100 70 -100 104 0 73 85 92 128 29 13 -19 27 -36 32 -38 8 -3 2
78 -7 87 -7 9 -119 10 -139 2z"/>
<path d="M3936 544 c-19 -19 -17 -33 7 -48 24 -15 56 17 41 41 -15 24 -29 26
-48 7z"/>
<path d="M2593 498 c-13 -13 -23 -34 -23 -46 0 -15 -6 -22 -20 -22 -11 0 -20
-4 -20 -10 0 -5 9 -10 20 -10 19 0 20 -7 20 -108 0 -81 4 -113 16 -130 19 -28
64 -29 95 -2 l24 21 -26 -3 c-50 -5 -59 14 -59 123 l0 99 35 0 c19 0 35 5 35
10 0 6 -16 10 -34 10 -34 0 -35 1 -38 46 l-3 46 -22 -24z"/>
<path d="M1151 423 c-70 -36 -99 -121 -68 -196 29 -68 119 -97 188 -62 87 45
94 193 12 250 -35 25 -94 28 -132 8z m80 -13 c23 0 49 -66 49 -126 0 -71 -25
-114 -66 -114 -49 0 -84 58 -84 141 0 43 5 55 30 81 19 18 36 28 46 24 9 -3
20 -6 25 -6z"/>
<path d="M1428 426 c-40 -10 -49 -23 -23 -32 12 -5 15 -26 15 -104 0 -90 -2
-99 -22 -113 -22 -15 -19 -16 47 -16 66 0 69 1 48 16 -21 14 -23 23 -23 104
l0 89 35 17 c66 32 95 -4 95 -116 0 -64 -8 -87 -33 -99 -18 -9 -8 -11 48 -11
65 0 68 1 50 15 -17 12 -21 29 -23 104 l-4 88 32 17 c69 36 100 2 100 -110 0
-75 -4 -85 -35 -103 -16 -9 -6 -11 55 -11 61 0 71 2 53 11 -21 10 -23 18 -23
102 0 101 -11 132 -53 156 -26 14 -30 13 -76 -11 l-48 -25 -28 24 c-33 28 -69
25 -115 -8 l-29 -20 -3 22 c-3 21 -6 22 -40 14z"/>
<path d="M1918 428 c-42 -11 -49 -23 -18 -31 19 -5 20 -14 20 -180 0 -170 -1
-175 -22 -190 -22 -15 -19 -16 50 -16 46 -1 71 3 67 9 -3 6 -12 10 -20 10 -18
0 -25 23 -25 78 l0 47 44 0 c141 1 215 208 96 270 -39 20 -59 19 -95 -5 -38
-25 -45 -25 -45 0 0 22 0 22 -52 8z m159 -43 c72 -51 38 -205 -45 -205 -54 0
-62 14 -62 105 0 75 2 85 22 99 28 20 58 20 85 1z"/>
<path d="M2800 421 c-39 -21 -80 -89 -80 -133 0 -73 56 -138 118 -138 39 0
102 36 102 58 0 8 -3 12 -7 10 -5 -2 -21 -10 -36 -18 -49 -24 -106 14 -122 82
l-7 26 87 7 c60 5 88 12 92 21 9 24 -18 74 -48 89 -37 20 -57 19 -99 -4z m87
-40 c17 -35 9 -41 -53 -41 -59 0 -66 9 -38 48 22 31 74 27 91 -7z"/>
<path d="M3035 428 c-61 -19 -61 -19 -37 -29 21 -8 22 -14 22 -114 0 -85 -3
-105 -14 -105 -8 0 -18 -4 -21 -10 -4 -6 21 -10 67 -10 70 1 72 1 46 16 -27
14 -28 18 -28 88 0 93 21 128 74 119 39 -6 55 17 30 42 -23 22 -39 19 -71 -15
l-28 -30 -5 28 c-5 27 -7 28 -35 20z"/>
<path d="M3735 421 c-63 -29 -88 -62 -93 -124 -8 -96 47 -155 131 -144 42 6
120 67 85 67 -9 0 -19 -4 -22 -9 -11 -17 -59 -22 -88 -10 -37 15 -58 56 -58
112 0 74 52 111 115 81 28 -13 39 -14 48 -5 9 10 7 17 -12 32 -29 24 -55 24
-106 0z"/>
<path d="M3938 426 c-40 -10 -49 -23 -23 -32 12 -5 15 -27 15 -109 0 -96 -1
-103 -22 -113 -19 -9 -9 -11 52 -11 60 0 71 2 55 11 -11 6 -22 13 -25 15 -3 3
-7 59 -10 126 l-5 122 -37 -9z"/>
<path d="M4140 423 c-98 -50 -110 -211 -20 -258 50 -26 114 -13 150 30 20 24
6 28 -30 10 -44 -23 -86 -12 -111 28 -10 18 -19 41 -19 53 0 18 8 22 53 28 28
3 67 6 85 6 29 0 32 3 32 29 0 17 -10 41 -22 55 -31 35 -74 41 -118 19z m74
-35 c28 -40 21 -48 -44 -48 -33 0 -60 4 -60 9 0 4 9 20 21 35 25 32 62 34 83
4z"/>
<path d="M4380 430 c-8 -5 -25 -10 -37 -10 -28 0 -29 -4 -3 -30 17 -17 20 -33
20 -102 0 -88 -3 -98 -35 -116 -16 -9 -6 -11 55 -11 61 0 71 2 53 11 -21 10
-23 17 -23 104 0 85 2 94 22 108 30 21 61 20 81 -2 13 -14 17 -39 17 -104 0
-77 -2 -87 -22 -101 -22 -15 -19 -16 47 -16 66 0 69 1 48 16 -21 14 -23 23
-23 105 0 106 -15 143 -60 153 -22 5 -40 1 -66 -14 -43 -26 -44 -26 -44 -1 0
22 -7 25 -30 10z"/>
<path d="M4763 429 c-41 -12 -88 -60 -103 -105 -42 -128 97 -226 197 -140 35
30 25 43 -17 21 -59 -31 -122 6 -136 79 -8 44 18 103 52 118 22 10 32 9 65 -9
21 -11 40 -18 43 -15 15 14 4 43 -20 52 -29 12 -38 11 -81 -1z"/>
<path d="M4990 421 c-66 -35 -98 -135 -65 -205 33 -70 129 -86 183 -32 33 32
24 42 -16 19 -40 -23 -78 -10 -109 36 -40 59 -34 68 55 76 42 3 83 8 90 10 23
8 12 47 -22 81 -39 39 -66 42 -116 15z m78 -23 c7 -7 12 -22 12 -35 0 -21 -4
-23 -55 -23 -60 0 -67 9 -39 48 17 24 62 30 82 10z"/>
<path d="M5230 427 c-14 -7 -31 -25 -38 -41 -21 -42 -1 -78 59 -110 52 -29 71
-64 49 -91 -20 -24 -56 -18 -84 16 -14 17 -26 35 -26 40 0 6 -5 7 -11 4 -14
-9 -1 -67 19 -82 9 -7 36 -13 60 -13 35 0 49 6 73 29 51 51 37 94 -46 139 -38
20 -51 33 -53 53 -6 53 52 62 84 13 22 -32 36 -30 28 4 -12 50 -60 66 -114 39z"/>
<path d="M2220 420 c-12 -8 -12 -10 3 -16 14 -5 17 -20 17 -89 0 -45 5 -96 11
-114 19 -54 69 -66 127 -31 40 25 42 25 42 -1 0 -15 5 -19 18 -15 9 3 29 8 45
12 31 7 36 24 7 24 -19 0 -20 7 -20 120 l0 120 -32 -1 c-32 0 -85 -17 -61 -18
31 -2 43 -33 43 -111 0 -73 -2 -81 -24 -95 -35 -23 -78 -16 -93 15 -7 15 -13
63 -13 118 l0 92 -27 0 c-16 0 -35 -4 -43 -10z"/>
</g>
</svg>
