<?xml version="1.0" standalone="no"?>
<!DOCTYPE svg PUBLIC "-//W3C//DTD SVG 20010904//EN"
 "http://www.w3.org/TR/2001/REC-SVG-20010904/DTD/svg10.dtd">
<svg version="1.0" xmlns="http://www.w3.org/2000/svg"
 width="1064.000000pt" height="230.000000pt" viewBox="0 0 1064.000000 230.000000"
 preserveAspectRatio="xMidYMid meet">

<g transform="translate(0.000000,230.000000) scale(0.100000,-0.100000)"
fill="#000000" stroke="none">
<path d="M3356 2195 c-113 -31 -170 -118 -189 -289 l-12 -107 -60 -33 -60 -33
-3 -66 -3 -67 66 0 65 0 0 -405 0 -405 130 0 130 0 2 402 3 403 100 5 100 5 3
98 3 97 -100 0 c-59 0 -102 4 -106 11 -4 5 -4 38 0 72 6 49 13 67 37 90 28 28
32 29 86 22 102 -13 93 -19 123 80 21 67 25 91 16 97 -27 16 -150 38 -214 37
-37 0 -90 -7 -117 -14z"/>
<path d="M790 1495 l0 -705 130 0 130 0 0 308 c0 318 7 380 45 438 41 63 145
85 200 42 57 -45 60 -61 63 -440 l3 -348 130 0 129 0 0 348 c0 192 -5 376 -11
411 -30 188 -143 280 -328 269 -93 -6 -143 -29 -200 -94 -23 -26 -43 -45 -45
-43 -2 2 1 59 6 126 5 68 7 183 6 255 l-3 133 -127 3 -128 3 0 -706z"/>
<path d="M3778 2184 c-15 -8 -35 -28 -43 -44 -19 -37 -19 -113 0 -149 43 -83
216 -80 251 5 30 71 8 161 -45 188 -38 20 -127 20 -163 0z"/>
<path d="M6980 1495 l0 -705 130 0 130 0 0 278 c0 152 5 306 10 342 21 133 73
190 173 190 40 0 54 -5 77 -28 15 -16 33 -46 39 -68 7 -24 11 -164 11 -376 l0
-338 131 0 130 0 -3 398 c-3 384 -4 399 -25 452 -46 112 -131 171 -259 178
-128 7 -216 -34 -275 -127 -14 -22 -15 1 -11 243 l5 266 -132 0 -131 0 0 -705z"/>
<path d="M8064 2181 c-77 -47 -70 -197 11 -235 70 -33 172 -11 200 45 19 36
19 112 0 149 -9 16 -29 36 -45 45 -41 21 -128 19 -166 -4z"/>
<path d="M237 2013 c-2 -5 -19 -54 -36 -110 l-31 -101 -68 -39 -67 -39 0 -59
0 -60 57 -3 57 -3 3 -312 c3 -232 8 -321 18 -347 27 -70 61 -109 119 -137 49
-25 67 -28 151 -28 62 0 115 6 153 18 l57 18 0 100 c0 100 0 101 -22 95 -13
-4 -52 -10 -89 -13 -59 -5 -68 -3 -95 20 l-29 25 -3 281 -3 281 116 0 115 0 0
100 0 100 -115 0 -115 0 0 110 0 110 -84 0 c-47 0 -87 -3 -89 -7z"/>
<path d="M2058 1801 c-141 -46 -239 -172 -269 -344 -18 -107 -7 -317 20 -396
64 -184 190 -275 396 -288 100 -6 226 13 303 47 l42 19 0 106 0 105 -38 -19
c-105 -54 -292 -74 -357 -39 -69 37 -115 117 -115 199 l0 39 280 0 280 0 0
113 c0 236 -70 372 -228 445 -77 35 -229 41 -314 13z m208 -187 c44 -21 81
-83 90 -151 l7 -53 -162 0 -161 0 0 23 c0 45 30 123 57 149 51 49 110 60 169
32z"/>
<path d="M4609 1806 c-59 -21 -106 -54 -138 -98 -34 -45 -34 -45 -55 39 l-12
48 -102 3 -102 3 0 -506 0 -505 129 0 129 0 4 323 c5 357 11 397 68 452 25 24
40 30 93 33 52 3 66 0 89 -18 52 -40 58 -88 58 -457 l0 -333 131 0 130 0 -3
397 c-4 460 -5 461 -93 550 -39 38 -66 55 -105 67 -64 19 -171 20 -221 2z"/>
<path d="M5497 1809 c-183 -43 -294 -214 -305 -470 -5 -133 7 -222 45 -316 50
-125 167 -218 308 -244 111 -21 300 2 388 47 27 14 27 15 27 118 l0 104 -37
-18 c-161 -77 -323 -77 -403 -1 -39 37 -70 114 -70 173 l0 28 285 0 285 0 0
74 c0 101 -17 219 -41 279 -43 110 -130 190 -238 221 -59 17 -182 20 -244 5z
m202 -206 c38 -29 59 -70 69 -136 l9 -57 -164 0 -163 0 6 43 c8 52 29 105 52
131 43 48 138 58 191 19z"/>
<path d="M6428 1806 c-218 -63 -337 -310 -299 -622 19 -158 73 -274 154 -334
123 -90 335 -105 485 -34 l52 25 0 110 c0 60 -3 109 -8 109 -4 0 -16 -6 -27
-14 -44 -30 -137 -56 -199 -56 -145 0 -205 108 -194 349 8 158 53 241 144 261
44 10 152 -8 203 -34 31 -16 31 -16 44 16 42 101 61 168 51 178 -5 5 -37 20
-70 32 -75 27 -264 35 -336 14z"/>
<path d="M9657 1810 c-147 -38 -255 -161 -292 -335 -19 -91 -19 -282 0 -364
43 -180 165 -299 340 -332 111 -21 300 2 388 47 27 14 27 15 27 119 l0 105
-38 -19 c-106 -54 -292 -74 -359 -38 -66 35 -113 121 -113 206 l0 31 280 0
280 0 0 118 c0 177 -30 270 -116 362 -67 71 -144 103 -264 106 -52 2 -112 -1
-133 -6z m197 -205 c35 -23 66 -84 73 -146 l6 -49 -162 0 c-181 0 -170 -6
-150 80 12 55 51 107 93 126 39 18 104 13 140 -11z"/>
<path d="M3730 1295 l0 -505 130 0 130 0 0 505 0 505 -130 0 -130 0 0 -505z"/>
<path d="M8020 1295 l0 -505 130 0 130 0 0 505 0 505 -130 0 -130 0 0 -505z"/>
<path d="M8461 1528 c49 -150 123 -378 165 -505 l75 -233 138 0 137 0 162 498
c89 273 162 500 162 505 0 4 -60 7 -133 7 l-132 0 -87 -312 c-48 -172 -90
-331 -93 -353 -16 -104 -17 -103 -37 5 -10 58 -53 229 -96 380 l-78 275 -136
3 -136 3 89 -273z"/>
<path d="M10369 1047 c-45 -30 -59 -60 -59 -127 0 -98 52 -150 151 -150 96 0
144 50 144 150 0 67 -17 103 -61 130 -45 29 -130 27 -175 -3z"/>
<path d="M3862 308 l3 -153 28 -3 27 -3 0 73 c0 85 16 121 47 102 15 -9 19
-27 21 -93 3 -79 3 -81 28 -81 l25 0 -3 102 c-3 100 -4 103 -30 117 -22 13
-33 13 -58 4 l-30 -11 0 49 c0 48 -1 49 -30 49 l-31 0 3 -152z"/>
<path d="M4097 448 c-6 -18 11 -48 27 -48 20 0 37 25 30 44 -7 19 -50 22 -57
4z"/>
<path d="M4630 304 l0 -155 28 3 27 3 3 153 3 152 -31 0 -30 0 0 -156z"/>
<path d="M5450 436 c0 -29 28 -42 48 -22 20 20 8 46 -23 46 -20 0 -25 -5 -25
-24z"/>
<path d="M6200 305 c0 -147 1 -155 20 -155 10 0 23 7 28 16 8 14 10 14 21 0
21 -25 67 -20 90 10 16 21 21 41 21 91 0 55 -4 67 -25 88 -28 29 -61 32 -87 8
-17 -15 -18 -14 -18 40 0 54 -1 57 -25 57 l-25 0 0 -155z m121 -2 c22 -56 -19
-129 -53 -95 -11 11 -13 95 -3 112 13 20 45 10 56 -17z"/>
<path d="M7372 308 l3 -153 28 -3 27 -3 0 71 c0 79 11 110 39 110 26 0 31 -19
31 -106 l0 -75 26 3 27 3 -2 95 c-1 83 -4 97 -22 113 -26 21 -63 22 -83 1 -15
-14 -16 -10 -16 40 0 56 0 56 -30 56 l-31 0 3 -152z"/>
<path d="M7733 440 c-27 -11 -43 -40 -43 -79 0 -33 19 -58 68 -87 78 -45 29
-94 -59 -59 -13 5 -15 1 -11 -22 6 -36 17 -43 68 -43 71 0 117 55 95 113 -6
14 -30 39 -55 57 -66 44 -57 95 11 69 27 -10 43 0 43 29 0 26 -73 40 -117 22z"/>
<path d="M6730 294 l0 -145 27 3 c26 3 27 6 25 49 -2 31 1 49 12 58 13 11 19
4 46 -48 27 -54 34 -61 60 -61 17 0 30 3 30 8 0 4 -18 40 -41 81 l-40 74 24
36 c13 20 32 48 41 64 l18 27 -33 0 c-30 0 -38 -6 -73 -60 -21 -33 -40 -60
-41 -60 -2 0 -3 27 -2 60 2 59 2 60 -25 60 l-28 0 0 -146z"/>
<path d="M5963 384 c-25 -38 -29 -54 -13 -54 6 0 10 -29 10 -68 0 -87 17 -114
68 -110 30 2 38 8 40 26 3 18 -1 22 -22 22 -25 0 -26 2 -26 65 0 63 1 65 26
65 21 0 25 4 22 23 -2 14 -11 23 -25 25 -15 2 -23 10 -23 23 0 31 -33 22 -57
-17z"/>
<path d="M2788 373 c-17 -4 -25 -33 -12 -46 3 -3 17 -2 30 3 31 12 54 3 54
-21 0 -15 -7 -19 -35 -19 -39 0 -85 -36 -85 -65 0 -20 19 -57 34 -67 19 -13
59 -9 78 8 16 16 18 16 24 0 3 -9 15 -16 25 -16 17 0 19 8 19 93 0 85 -2 96
-23 115 -22 21 -64 27 -109 15z m72 -137 c0 -33 -25 -53 -45 -36 -22 18 -18
39 8 50 33 13 37 12 37 -14z"/>
<path d="M2974 367 c-2 -7 -3 -58 -2 -113 l3 -99 28 -3 27 -3 0 78 c0 81 9
103 41 103 23 0 29 -20 29 -106 l0 -75 26 3 27 3 -2 95 c-1 83 -4 97 -22 113
-26 21 -58 22 -86 2 -19 -13 -22 -13 -27 0 -7 19 -35 20 -42 2z"/>
<path d="M3328 373 c-19 -5 -22 -12 -12 -37 4 -11 11 -13 30 -6 31 12 54 3 54
-21 0 -15 -7 -19 -34 -19 -46 0 -79 -29 -79 -68 0 -61 62 -94 105 -56 16 16
18 16 24 0 3 -9 15 -16 25 -16 17 0 19 8 19 95 0 82 -3 98 -20 115 -19 19 -67
25 -112 13z m72 -137 c0 -34 -26 -54 -46 -34 -24 24 -6 50 39 57 4 0 7 -10 7
-23z"/>
<path d="M3514 367 c-2 -7 -3 -58 -2 -113 l3 -99 28 -3 27 -3 0 66 c0 78 11
105 45 105 21 0 25 5 25 30 0 36 -27 41 -56 9 l-18 -20 -8 20 c-8 23 -36 28
-44 8z"/>
<path d="M3699 351 c-26 -26 -29 -36 -29 -91 0 -51 4 -65 25 -85 39 -40 125
-33 125 10 0 21 -3 23 -40 18 -36 -5 -40 -3 -51 23 -7 19 -8 42 -2 64 8 32 11
35 45 34 29 -1 39 3 44 19 15 46 -72 52 -117 8z"/>
<path d="M4100 265 l0 -115 25 0 25 0 0 115 0 115 -25 0 -25 0 0 -115z"/>
<path d="M4191 363 c0 -10 15 -61 32 -113 31 -91 33 -95 61 -95 28 0 31 4 63
100 40 121 41 127 6 123 -24 -3 -28 -10 -47 -82 l-22 -78 -20 78 c-18 72 -23
79 -47 82 -21 3 -27 -1 -26 -15z"/>
<path d="M4442 370 c-19 -8 -21 -13 -12 -30 9 -16 15 -18 36 -9 19 6 31 6 40
-2 26 -21 16 -39 -21 -39 -25 0 -44 -8 -60 -25 -63 -62 10 -151 82 -100 19 13
22 13 27 0 3 -8 15 -15 26 -15 19 0 20 6 20 90 0 83 -2 93 -25 115 -26 26 -70
32 -113 15z m78 -135 c0 -25 -26 -46 -47 -38 -21 8 -15 43 10 53 34 13 37 12
37 -15z"/>
<path d="M4830 220 l0 -160 30 0 c30 0 30 0 30 56 0 48 2 55 14 45 24 -20 67
-9 90 22 15 21 21 43 21 82 0 88 -54 138 -110 101 -20 -13 -24 -13 -29 -1 -3
8 -15 15 -26 15 -19 0 -20 -6 -20 -160z m120 91 c23 -43 5 -111 -29 -111 -22
0 -31 19 -31 65 0 18 3 40 6 49 8 22 41 20 54 -3z"/>
<path d="M5067 373 c-4 -3 -7 -55 -7 -115 l0 -108 30 0 30 0 0 73 c0 78 9 97
47 97 19 0 23 5 23 30 0 37 -29 41 -58 10 l-19 -21 -6 21 c-5 19 -27 27 -40
13z"/>
<path d="M5262 370 c-47 -20 -66 -133 -29 -181 50 -65 149 -41 166 41 21 102
-50 174 -137 140z m79 -67 c15 -38 0 -97 -25 -101 -38 -8 -61 62 -36 109 16
28 49 24 61 -8z"/>
<path d="M5448 248 c-3 -127 -4 -133 -25 -143 -13 -5 -23 -18 -23 -27 0 -14 8
-18 34 -18 65 0 79 41 74 215 l-3 100 -27 3 -27 3 -3 -133z"/>
<path d="M5583 356 c-25 -22 -28 -30 -28 -91 0 -61 3 -69 28 -91 45 -39 137
-31 137 12 0 13 -1 24 -3 24 -1 0 -16 -4 -32 -9 -39 -11 -75 3 -75 29 0 18 6
20 60 20 l60 0 0 36 c0 26 -8 43 -29 65 -37 36 -79 38 -118 5z m81 -32 c25
-24 19 -34 -19 -34 -36 0 -46 15 -23 38 16 16 23 15 42 -4z"/>
<path d="M5804 366 c-53 -38 -58 -151 -9 -193 42 -36 115 -29 115 11 0 19 -4
22 -30 18 -42 -6 -60 13 -60 63 0 49 18 70 55 62 19 -3 29 1 36 15 14 25 9 29
-43 35 -29 3 -50 -1 -64 -11z"/>
<path d="M6409 375 c-3 -3 11 -53 31 -112 27 -78 35 -114 29 -130 -5 -13 -13
-24 -19 -24 -5 -1 -14 -2 -20 -3 -5 0 -10 -4 -10 -8 0 -5 0 -15 0 -23 0 -24
53 -18 79 8 19 21 100 250 101 285 0 9 -10 12 -27 10 -24 -3 -29 -11 -48 -73
l-21 -70 -20 70 c-18 60 -25 70 -45 73 -14 2 -27 0 -30 -3z"/>
<path d="M6960 286 c0 -83 3 -99 20 -116 24 -24 72 -26 91 -4 11 14 13 14 21
0 5 -9 18 -16 28 -16 19 0 20 8 20 116 l0 115 -27 -3 c-27 -3 -28 -4 -31 -78
-4 -94 -7 -102 -34 -98 -21 3 -23 9 -28 88 -5 84 -5 85 -32 88 l-28 3 0 -95z"/>
<path d="M7205 355 c-39 -38 -29 -70 36 -111 49 -31 42 -48 -17 -41 -41 4 -44
3 -44 -18 0 -26 17 -35 69 -35 52 0 81 23 81 66 0 29 -6 39 -45 66 -45 32 -55
47 -32 49 19 2 20 2 43 -5 16 -5 23 -2 27 14 11 44 -78 56 -118 15z"/>
<path d="M7905 206 c-25 -18 -11 -56 20 -56 21 0 35 17 35 40 0 19 -37 30 -55
16z"/>
</g>
</svg>
